<svg width="654" height="453" viewBox="0 0 654 453" fill="none" xmlns="http://www.w3.org/2000/svg">
<g clip-path="url(#clip0_148_2175)">
<mask id="mask0_148_2175" style="mask-type:luminance" maskUnits="userSpaceOnUse" x="0" y="154" width="655" height="299">
<path d="M654.453 452.91H0V154.198H654.453V452.91Z" fill="white"/>
</mask>
<g mask="url(#mask0_148_2175)">
<path d="M591.588 350.915C577.638 250.188 461.241 213.502 372.199 235.423C348.467 240.314 325.006 247.923 300.368 247.38C216.127 236.782 147.375 176.001 55.1631 201.636C2.2634 214.408 -39.5854 253.902 -42.1217 303.269C-43.2992 325.642 -17.1211 363.505 -23.5524 385.064C-58.064 451.007 -117.304 534.886 -41.3064 613.783C-18.7516 612.514 541.496 581.083 556.533 580.177C566.497 553.999 574.378 533.074 559.16 500.193C543.489 459.069 607.53 433.525 591.588 350.915Z" fill="#F472B6"/>
</g>
<path d="M654 452.909H0V340.588H654V452.909Z" fill="#C33470"/>
<path d="M80.9792 452.728C80.8886 452.728 80.798 452.638 80.7074 452.547C80.4357 451.913 88.4069 417.039 96.9216 384.883C105.346 353.088 117.302 312.417 126.27 299.645C126.361 299.464 126.542 299.464 126.632 299.555C126.814 299.645 126.814 299.826 126.723 300.008C109.422 324.827 81.5227 450.645 81.3415 452.366C81.3415 452.457 81.2509 452.638 81.1603 452.638C81.1 452.698 81.0396 452.728 80.9792 452.728Z" fill="#500724"/>
<path d="M128.987 318.758C128.927 318.999 128.867 319.241 128.806 319.482C124.005 321.566 119.386 323.921 114.857 326.548V326.638C114.796 326.638 114.736 326.638 114.675 326.638H114.585C114.494 326.548 114.404 326.548 114.404 326.457V326.367C112.864 322.019 110.962 317.852 108.788 313.776C108.969 313.594 109.12 313.383 109.241 313.142C111.354 317.127 113.166 321.234 114.675 325.461C114.736 325.581 114.796 325.732 114.857 325.914C114.977 325.793 115.098 325.702 115.219 325.642C119.627 323.045 124.217 320.75 128.987 318.758Z" fill="#500724"/>
<path d="M126.179 331.076C126.119 331.317 126.058 331.559 125.998 331.801C121.107 333.522 116.215 335.514 111.414 337.598C111.354 337.658 111.324 337.688 111.324 337.688C111.263 337.688 111.233 337.658 111.233 337.598C111.112 337.598 111.052 337.568 111.052 337.507C110.931 337.326 110.841 337.175 110.78 337.054C108.606 332.435 106.161 328.087 103.353 323.829C103.473 323.648 103.594 323.437 103.715 323.195C106.432 327.362 108.878 331.68 111.052 336.149C111.233 336.42 111.324 336.601 111.414 336.873C111.414 336.873 111.505 336.873 111.505 336.964C116.215 334.79 121.197 332.888 126.179 331.076Z" fill="#500724"/>
<path d="M121.017 348.741C120.957 349.043 120.896 349.315 120.836 349.556C115.401 351.73 110.238 354.357 105.256 357.346C105.256 357.407 105.225 357.437 105.165 357.437C105.165 357.437 105.135 357.437 105.075 357.437C105.075 357.437 105.044 357.437 104.984 357.437C104.893 357.437 104.893 357.346 104.803 357.256L104.712 357.075L96.4692 342.853C96.5296 342.551 96.6202 342.28 96.741 342.038L104.893 356.169L105.165 356.712C105.286 356.652 105.376 356.592 105.437 356.531C110.419 353.542 115.673 350.915 121.017 348.741Z" fill="#500724"/>
<path d="M114.856 367.763C114.766 368.035 114.675 368.306 114.584 368.578C110.176 370.51 105.677 372.171 101.088 373.56C100.997 373.56 100.907 373.56 100.725 373.56C100.725 373.62 100.695 373.62 100.635 373.56C100.574 373.56 100.544 373.56 100.544 373.56C100.363 373.469 100.182 373.288 100.091 373.198C100.091 373.137 100.091 373.107 100.091 373.107C97.1927 368.216 94.3847 363.234 91.7578 358.252C91.8182 358.01 91.9088 357.738 92.0296 357.437C94.6564 362.419 97.4645 367.491 100.363 372.383C100.363 372.473 100.544 372.654 100.544 372.745C100.635 372.835 100.635 372.926 100.725 373.017C100.725 373.017 100.756 372.986 100.816 372.926H100.907C105.617 371.477 110.327 369.756 114.856 367.763Z" fill="#500724"/>
<path d="M111.053 379.085C110.993 379.327 110.902 379.599 110.781 379.9C106.433 381.833 102.025 383.554 97.5565 385.064C97.4357 385.064 97.3451 385.003 97.2847 384.882L97.013 384.611L88.2266 371.476C88.2266 371.174 88.2869 370.903 88.4077 370.661L97.2847 383.795L97.6471 384.43L97.7376 384.339C102.267 382.799 106.705 381.078 111.053 379.085Z" fill="#500724"/>
<path d="M105.89 395.753C105.799 396.024 105.709 396.296 105.618 396.568C101.632 398.289 97.5562 399.829 93.48 401.006H93.3895C93.2687 401.006 93.1781 400.976 93.1177 400.916C93.0271 400.825 92.9366 400.735 92.846 400.644V400.553C89.5246 396.447 86.7166 392.008 84.4219 387.238C84.4823 386.876 84.5427 386.574 84.603 386.332C86.9582 391.133 89.7662 395.662 93.0271 399.829C93.2083 400.01 93.3593 400.191 93.48 400.372C93.5706 400.372 93.5706 400.372 93.5706 400.372C97.7978 399.104 101.904 397.564 105.89 395.753Z" fill="#500724"/>
<path d="M100.816 413.687C100.756 413.868 100.696 414.08 100.635 414.321C97.6763 414.925 94.8078 415.71 92.03 416.676C91.4865 416.948 90.8524 417.22 90.1278 417.22C90.007 417.16 89.856 417.129 89.6749 417.129C89.5843 417.129 89.4937 417.129 89.4937 417.039C89.2522 417.039 89.0408 416.948 88.8596 416.767C88.3162 416.495 87.8632 416.042 87.4103 415.589C84.874 412.691 82.5189 409.611 80.4355 406.26L80.6167 405.444C80.6771 405.444 80.7073 405.475 80.7073 405.535C82.7907 408.886 85.2364 412.147 87.8632 415.137C88.2256 415.499 88.5879 415.952 89.0408 416.133C89.222 416.314 89.4031 416.435 89.5843 416.495C89.6447 416.495 89.7051 416.495 89.7655 416.495C90.3995 416.676 91.1242 416.405 91.8488 416.133C94.7475 415.046 97.7367 414.231 100.816 413.687Z" fill="#500724"/>
<path d="M98.0088 424.286C94.2044 425.555 90.4905 426.913 86.7767 428.363H86.6861L86.1426 427.819L78.0808 419.938C78.0808 420.18 78.0506 420.422 77.9902 420.663L86.052 428.544L86.4143 428.997C86.5049 428.997 86.5955 428.997 86.5955 428.997C86.5955 428.997 86.6257 428.997 86.6861 428.997H86.7767C90.3999 427.608 94.0836 426.279 97.8276 425.011L98.0088 424.286Z" fill="#500724"/>
<path d="M95.8346 433.433C95.7742 433.675 95.7138 433.917 95.6534 434.158C91.7886 435.909 87.9842 437.751 84.2401 439.684C84.1797 439.684 84.1496 439.714 84.1496 439.774H84.059C83.9986 439.714 83.9382 439.653 83.8778 439.593L83.5155 439.231L76.6313 430.716C76.5407 430.625 76.6313 430.444 76.7219 430.354C76.8124 430.172 76.9936 430.172 77.1748 430.354L83.6966 438.506L84.1496 439.049C84.2099 438.989 84.2401 438.959 84.2401 438.959C88.0446 437.057 91.9396 435.154 95.8346 433.433Z" fill="#500724"/>
<path d="M75.6357 287.69C73.4618 293.668 71.6501 303.36 70.2008 315.227C70.2008 315.529 70.1706 315.861 70.1103 316.223C69.6573 319.756 69.295 323.47 68.9327 327.274C68.9327 327.576 68.9025 327.848 68.8421 328.089C68.2986 334.611 67.7551 341.495 67.3022 348.561C67.2418 348.863 67.2116 349.165 67.2116 349.467C66.9399 354.901 66.5776 360.518 66.3058 366.134C66.3058 366.375 66.3058 366.586 66.3058 366.768C66.1247 370.632 65.9435 374.467 65.7623 378.272C65.7623 378.513 65.7623 378.755 65.7623 378.996C65.5812 384.612 65.3094 390.047 65.2188 395.391C65.2188 395.633 65.1886 395.875 65.1283 396.116C65.0377 401.823 64.8565 407.348 64.7659 412.511V413.146C64.7055 417.433 64.6452 421.419 64.5848 425.102C64.5848 425.404 64.5848 425.646 64.5848 425.827C64.4942 429.722 64.4942 433.345 64.4036 436.425C64.4942 436.697 64.4036 436.969 64.4036 437.15C64.4036 445.302 64.4036 450.284 64.4036 450.556C64.4942 450.646 64.4036 450.827 64.313 450.918C64.2526 450.978 64.1922 451.009 64.1319 451.009C64.0413 451.009 63.9507 450.918 63.8601 450.828C63.7695 450.737 63.7695 445.483 63.7695 436.878V436.063C63.8299 432.923 63.8601 429.42 63.8601 425.555C63.8601 425.253 63.8903 424.982 63.9507 424.74C63.9507 421.117 64.0413 417.222 64.1319 413.055V412.33C64.2224 407.077 64.4036 401.551 64.4942 395.754C64.5546 395.512 64.5848 395.241 64.5848 394.939C64.7659 389.685 64.8565 384.25 65.1283 378.634C65.1283 378.332 65.1283 378.06 65.1283 377.819C65.3094 374.014 65.4906 370.21 65.6717 366.496C65.6717 366.134 65.6717 365.801 65.6717 365.5C65.9435 359.974 66.3058 354.449 66.6681 349.104C66.6681 348.802 66.6681 348.5 66.6681 348.198C67.1211 341.042 67.6645 334.068 68.2986 327.546C68.359 327.183 68.3892 326.851 68.3892 326.549C68.7515 322.926 69.1138 319.303 69.4762 315.951C69.5366 315.589 69.597 315.257 69.6573 314.955C71.1067 303.27 72.8277 293.668 75.0017 287.69C75.2432 287.629 75.4546 287.629 75.6357 287.69Z" fill="#500724"/>
<path d="M83.0641 305.534C78.4444 308.795 74.1871 312.328 70.1109 316.223C70.0505 316.283 69.9901 316.313 69.9297 316.313C69.8693 316.313 69.8391 316.313 69.8391 316.313C69.7184 316.253 69.658 316.193 69.658 316.132C69.5674 316.042 69.5674 316.042 69.4768 315.951C67.1217 312.056 64.4948 308.342 61.5962 304.81C61.5962 304.538 61.6868 304.266 61.7774 304.085C64.676 307.527 67.3028 311.15 69.658 314.955C69.7787 315.136 69.8693 315.317 69.9297 315.498C70.0203 315.408 70.1109 315.317 70.2015 315.227C74.1871 311.422 78.4444 307.98 82.8829 304.81C82.9735 305.081 82.9735 305.263 83.0641 305.534Z" fill="#500724"/>
<path d="M84.5128 317.673C79.2591 320.934 74.0959 324.376 69.1139 328.09C69.0536 328.09 68.9932 328.09 68.9328 328.09C68.8724 328.09 68.8422 328.09 68.8422 328.09C68.7818 328.09 68.7214 328.059 68.661 327.999C68.5403 327.818 68.4195 327.667 68.2987 327.546C65.3095 323.561 61.958 319.666 58.4253 316.133C58.4857 315.891 58.5461 315.65 58.6065 315.408C62.0486 318.941 65.4001 322.655 68.3893 326.55C68.5704 326.791 68.7516 327.033 68.9328 327.274C68.9328 327.335 68.963 327.365 69.0234 327.365C74.0053 323.742 79.1685 320.118 84.5128 316.948C84.5128 317.19 84.5128 317.431 84.5128 317.673Z" fill="#500724"/>
<path d="M84.6934 334.883C84.633 335.185 84.6028 335.456 84.6028 335.698C78.4433 339.684 72.646 344.303 67.3017 349.376C67.3017 349.376 67.3017 349.466 67.2111 349.466C67.2111 349.466 67.1809 349.466 67.1206 349.466C66.9998 349.466 66.9092 349.436 66.8488 349.376L66.6677 349.104L54.9826 335.97L54.7109 335.698C54.6203 335.517 54.6203 335.336 54.8014 335.245C54.9222 335.124 55.0128 335.094 55.0732 335.155C55.1638 335.155 55.1638 335.155 55.2544 335.245L66.6677 348.198L67.1206 348.742C67.1809 348.681 67.2413 348.621 67.3017 348.561C72.646 343.397 78.4433 338.868 84.6934 334.883Z" fill="#500724"/>
<path d="M83.1539 354.72C83.1539 355.022 83.1237 355.324 83.0633 355.626C77.9908 359.702 72.4653 363.416 66.7586 366.586C66.668 366.677 66.4869 366.768 66.3057 366.768H66.2151C65.9434 366.768 65.7622 366.586 65.6717 366.496C65.6113 366.435 65.5811 366.405 65.5811 366.405C61.4143 361.786 57.3381 356.985 53.3525 352.184C53.3525 351.882 53.3827 351.55 53.4431 351.188C57.4287 356.079 61.5049 360.88 65.6717 365.499C65.7924 365.681 65.9434 365.832 66.1246 365.952C66.2151 366.133 66.2151 366.133 66.2151 366.133C66.2755 366.133 66.3057 366.133 66.3057 366.133C66.3661 366.133 66.3963 366.103 66.3963 366.043C72.2841 362.782 77.9002 358.978 83.1539 354.72Z" fill="#500724"/>
<path d="M82.067 366.767C82.0066 367.069 81.9764 367.371 81.9764 367.673C76.9038 371.839 71.3784 375.644 65.8529 378.995C65.7925 378.995 65.7623 378.995 65.7623 378.995C65.7019 379.056 65.6717 379.086 65.6717 379.086C65.5509 379.025 65.4603 378.965 65.4 378.905L65.1282 378.633L52.4468 366.223V366.133C52.4468 365.861 52.4468 365.68 52.4468 365.317L65.1282 377.818L65.6717 378.361C65.7321 378.301 65.7623 378.271 65.7623 378.271C71.4689 374.828 76.9038 371.024 82.067 366.767Z" fill="#500724"/>
<path d="M80.346 385.065C80.346 385.337 80.346 385.609 80.2554 385.79C75.6357 389.685 70.5632 393.127 65.2188 396.026C65.2188 396.026 65.2188 396.116 65.1283 396.116C65.1283 396.116 65.0981 396.116 65.0377 396.116C64.9773 396.116 64.9169 396.086 64.8565 396.026C64.7357 395.905 64.615 395.814 64.4942 395.754C59.7839 391.768 55.5266 387.239 51.9033 382.257V381.261C51.9637 381.261 51.9939 381.291 51.9939 381.351C55.6172 386.424 59.8745 390.953 64.5848 394.939C64.7659 395.12 64.9471 395.271 65.1283 395.391C65.1283 395.391 65.1584 395.391 65.2188 395.391C70.4726 392.402 75.5452 388.96 80.1648 385.065C80.2554 385.065 80.2554 385.065 80.346 385.065Z" fill="#500724"/>
<path d="M64.9473 413.146C63.9509 413.146 63.1357 412.602 62.411 412.059C59.0595 409.613 55.9797 406.805 53.0811 403.725C52.9905 403.635 52.9905 403.454 53.0811 403.272C53.2623 403.182 53.4434 403.182 53.534 403.363C56.3421 406.352 59.5124 409.07 62.7734 411.515C63.498 412.059 64.1321 412.512 64.9473 412.512C65.5814 412.512 66.2155 412.149 66.8495 411.696C70.4728 409.432 74.2772 407.53 78.2628 406.08C78.444 405.99 78.6252 406.08 78.7157 406.262C78.7157 406.443 78.6252 406.624 78.5346 406.624C74.549 408.073 70.7446 409.975 67.2119 412.24C66.5778 412.693 65.8531 413.146 64.9473 413.146Z" fill="#500724"/>
<path d="M64.494 425.826C64.4336 425.826 64.4034 425.826 64.4034 425.826L53.2619 418.67C53.1713 418.58 53.0807 418.398 53.1713 418.217C53.2619 418.036 53.4431 418.036 53.6242 418.127L64.494 425.192C68.6608 422.293 73.0087 419.667 77.4472 417.13C77.5378 417.04 77.8095 417.13 77.8095 417.221C77.9001 417.402 77.9001 417.583 77.719 417.674C73.2805 420.21 68.9325 422.928 64.6752 425.826C64.6148 425.826 64.5544 425.826 64.494 425.826Z" fill="#500724"/>
<path d="M64.4038 436.425C68.2988 433.164 72.375 429.994 76.4512 427.005C76.4512 427.307 76.421 427.579 76.3606 427.82C72.3146 430.84 68.3592 433.949 64.4944 437.15C64.4944 437.15 64.4642 437.15 64.4038 437.15C64.4038 437.21 64.3736 437.241 64.3132 437.241C64.2528 437.241 64.1925 437.21 64.1321 437.15L63.7697 436.878L55.0739 429.722C54.9833 429.632 54.8927 429.36 54.9833 429.269C55.1645 429.088 55.3456 429.088 55.4362 429.269L63.7697 436.063L64.3132 436.516L64.4038 436.425Z" fill="#500724"/>
<path d="M47.1033 456.081C47.0429 456.202 46.9524 456.262 46.8316 456.262C46.7712 456.262 46.7108 456.232 46.6504 456.172C46.5296 456.111 46.4994 456.021 46.5598 455.9C46.4692 455.538 45.654 450.646 44.2047 442.675C44.2047 442.433 44.1745 442.192 44.1141 441.95C43.5706 438.87 42.9366 435.398 42.2119 431.533C42.1515 431.292 42.0911 431.08 42.0307 430.899C41.3967 427.185 40.5814 423.2 39.7662 419.033C39.7662 418.852 39.736 418.641 39.6756 418.399C38.6792 413.326 37.5922 407.892 36.4147 402.275C36.4147 402.034 36.3845 401.823 36.3241 401.641C35.2371 396.388 34.1501 391.043 32.9726 385.608C32.882 385.337 32.882 385.065 32.7914 384.884C31.9762 381.17 31.1609 377.366 30.3457 373.652C30.2551 373.38 30.2551 373.199 30.1645 373.018C28.987 367.492 27.7188 362.057 26.4507 356.713C26.3601 356.441 26.2695 356.079 26.1789 355.807C24.5485 349.013 22.918 342.31 21.1064 335.97C21.1064 335.728 21.046 335.487 20.9252 335.245C19.9288 331.531 18.9324 327.908 17.936 324.466C17.8152 324.164 17.6945 323.832 17.5737 323.469C16.5773 320.027 15.4903 316.676 14.4033 313.687C14.5241 313.445 14.6751 313.203 14.8562 312.962C15.9432 316.042 17.0302 319.484 18.1172 323.198C18.2379 323.5 18.3587 323.802 18.4795 324.103C19.4457 327.364 20.4119 330.807 21.3781 334.43C21.4385 334.732 21.5291 335.034 21.6499 335.336C23.3709 341.676 25.092 348.47 26.7224 355.445C26.8432 355.686 26.9338 355.958 26.9942 356.26C28.2623 361.604 29.5305 366.949 30.708 372.293C30.7684 372.595 30.8288 372.897 30.8892 373.199C31.7346 376.943 32.5499 380.626 33.3349 384.25C33.3953 384.552 33.4557 384.823 33.5161 385.065C34.6936 390.5 35.7806 395.844 36.8676 401.098C36.928 401.339 36.9884 401.611 37.0488 401.913C38.2263 407.62 39.3133 413.055 40.2191 418.127C40.2795 418.369 40.3399 418.61 40.4003 418.852C41.2155 422.928 41.9402 426.733 42.5742 430.356C42.6346 430.597 42.695 430.839 42.7554 431.08C43.4801 434.885 44.1141 438.418 44.6576 441.497C44.7482 441.769 44.7482 442.041 44.8388 442.313C46.2881 450.737 47.1939 455.99 47.1033 456.081Z" fill="#500724"/>
<path d="M24.367 311.784C22.1024 315.769 20.1096 319.845 18.4792 324.103C18.4188 324.163 18.3886 324.224 18.3886 324.284C18.3282 324.405 18.2678 324.465 18.2074 324.465C18.147 324.465 18.1168 324.495 18.1168 324.556C18.0564 324.495 17.9961 324.465 17.9357 324.465C16.0334 323.197 14.0406 321.929 12.0479 320.751C12.0479 320.57 12.078 320.359 12.1384 320.117C14.0105 321.204 15.8221 322.321 17.5733 323.469C17.6941 323.529 17.8149 323.62 17.9357 323.741C17.9961 323.559 18.0564 323.378 18.1168 323.197C19.7473 319.03 21.7401 315.135 23.9141 311.24C24.0952 311.421 24.2462 311.603 24.367 311.784Z" fill="#500724"/>
<path d="M30.5268 320.843C27.2659 325.372 24.1861 330.264 21.6498 335.336C21.529 335.517 21.4385 335.698 21.3781 335.88C21.3177 335.94 21.2271 335.97 21.1063 335.97C21.1063 336.031 21.0761 336.031 21.0157 335.97C21.0157 336.031 20.9856 336.031 20.9252 335.97C17.6642 334.34 14.3731 332.8 11.0518 331.351L11.1423 330.716C14.4033 332.166 17.6642 333.675 20.9252 335.246L21.3781 334.43C24.0049 329.448 26.9036 324.647 30.1645 320.209C30.2853 320.39 30.4061 320.602 30.5268 320.843Z" fill="#500724"/>
<path d="M36.4151 341.042L26.9946 356.259L26.8135 356.622C26.7531 356.682 26.6927 356.712 26.6323 356.712C26.5719 356.712 26.5417 356.712 26.5417 356.712C26.4813 356.712 26.4511 356.712 26.4511 356.712C26.3907 356.712 26.3605 356.682 26.3605 356.622C21.5597 353.451 16.4871 350.553 11.324 348.107C11.2636 347.866 11.2334 347.624 11.2334 347.382C16.4267 349.798 21.4087 352.606 26.1794 355.807C26.3002 355.867 26.3907 355.927 26.4511 355.988L26.7229 355.444L35.8716 340.679C35.9622 340.498 36.1434 340.498 36.3245 340.589C36.4151 340.679 36.5057 340.861 36.4151 341.042Z" fill="#500724"/>
<path d="M41.8497 354.72C38.317 360.97 34.6937 367.13 30.9799 373.199H30.8893C30.7987 373.289 30.7081 373.561 30.4364 373.561C30.376 373.621 30.3458 373.651 30.3458 373.651H30.2552C30.074 373.651 29.9835 373.561 29.8929 373.561C24.0957 371.478 18.4796 369.032 13.0447 366.133C12.9843 365.831 12.9541 365.56 12.9541 365.318C18.4494 368.277 24.156 370.813 30.074 372.927C30.074 372.987 30.1042 373.017 30.1646 373.017H30.2552C30.2552 373.017 30.2552 372.927 30.4364 372.836C30.4968 372.655 30.5873 372.474 30.7081 372.293C34.3314 366.496 37.9547 360.427 41.3062 354.358C41.3968 354.267 41.6685 354.176 41.7591 354.267C41.9403 354.358 41.9403 354.539 41.8497 354.72Z" fill="#500724"/>
<path d="M14.7654 377.093C20.5626 380.354 26.7222 383.162 32.8817 385.608C32.8817 385.608 32.9119 385.608 32.9723 385.608C33.1535 385.608 33.2441 385.608 33.2441 385.517C33.3346 385.336 33.4252 385.246 33.5158 385.155V385.064C37.2598 379.931 40.9737 374.768 44.6574 369.575C44.7479 369.394 44.7479 369.213 44.6574 369.122C44.4762 369.031 44.295 369.031 44.2044 369.213C40.5812 374.225 36.9579 379.237 33.3346 384.249C33.2139 384.491 33.0629 384.702 32.8817 384.883H32.7911C26.541 382.438 20.472 379.539 14.6748 376.278L14.7654 377.093Z" fill="#500724"/>
<path d="M36.5056 402.366C36.4452 402.366 36.415 402.336 36.415 402.275C30.5272 400.283 24.9112 397.656 19.4763 394.666C19.2951 394.576 19.2951 394.395 19.3857 394.214C19.4763 394.032 19.6574 394.032 19.748 394.123C25.0923 397.112 30.7084 399.648 36.415 401.641C40.5818 396.75 44.1145 391.406 46.9225 385.608C47.0131 385.427 47.1943 385.337 47.2848 385.427C47.466 385.518 47.5566 385.699 47.466 385.88C44.5674 391.768 40.9441 397.293 36.7774 402.185C36.717 402.245 36.6264 402.306 36.5056 402.366Z" fill="#500724"/>
<path d="M39.2227 419.122C38.4981 419.122 37.864 418.851 37.2299 418.579C33.3349 416.948 29.2587 415.771 25.1826 415.046C25.0014 414.956 24.8202 414.774 24.9108 414.684C24.9108 414.503 25.092 414.412 25.2731 414.412C29.4399 415.137 33.5161 416.405 37.4111 418.035C38.1357 418.307 38.8604 418.579 39.4945 418.488C40.2191 418.398 40.8532 417.764 41.3967 417.129C43.933 414.503 46.741 410.245 49.0055 406.803L49.8208 405.535C49.9114 405.354 50.1831 405.263 50.2737 405.444C50.4549 405.535 50.4549 405.716 50.3643 405.807L49.549 407.165C47.2845 410.608 44.3859 414.956 41.8496 417.582C41.2155 418.307 40.4909 418.941 39.5851 419.122C39.4643 419.122 39.3435 419.122 39.2227 419.122Z" fill="#500724"/>
<path d="M28.8059 426.098C33.2746 427.728 37.6829 429.54 42.0309 431.532C42.0309 431.532 42.061 431.532 42.1214 431.532C42.1214 431.532 42.1516 431.532 42.212 431.532C42.2724 431.532 42.3026 431.502 42.3026 431.442L42.7555 431.08L51.9948 422.565C52.176 422.384 52.176 422.203 52.0854 422.112C51.9043 421.931 51.7231 421.931 51.6325 422.021L42.5743 430.355L42.0309 430.898C37.6829 428.815 33.0633 427.003 28.5342 425.373L28.8059 426.098Z" fill="#500724"/>
<path d="M53.8966 431.351C53.8362 431.412 53.7758 431.502 53.7154 431.623C53.655 431.683 53.5946 431.744 53.5342 431.804C52.3567 433.163 50.7262 435.156 49.1863 437.058C47.6464 438.87 46.016 440.862 44.8384 442.312C44.7176 442.432 44.627 442.523 44.5667 442.583C44.5063 442.704 44.4157 442.765 44.2949 442.765C44.2949 442.765 44.2647 442.734 44.2043 442.674C44.2043 442.674 44.1741 442.674 44.1137 442.674C40.4301 440.56 36.7162 438.537 32.9722 436.605C32.8816 436.424 32.8816 436.243 32.791 436.152C32.7004 435.971 32.6099 435.88 32.6099 435.699C36.4143 437.692 40.3093 439.775 44.1137 441.949C44.1137 441.949 44.1439 441.98 44.2043 442.04C44.3855 441.859 44.5365 441.678 44.6572 441.496C45.8348 440.138 47.2841 438.326 48.7334 436.605C50.3639 434.522 52.1755 432.438 53.4437 430.989V430.898C53.504 430.898 53.5644 430.898 53.6248 430.898C53.6852 430.898 53.7758 430.898 53.8966 430.898C53.9872 430.989 53.9872 431.261 53.8966 431.351Z" fill="#500724"/>
<path d="M40.7625 454.268L12.8633 351.639" stroke="#FEC077" stroke-width="1.06662"/>
<path d="M6.43215 352.364C-10.0537 362.147 -18.8402 377.727 -13.2241 387.238C-7.60802 396.659 10.3272 396.568 26.7225 386.785C43.2083 377.093 51.9948 361.513 46.3787 352.002C40.7626 342.491 22.8274 342.672 6.43215 352.364Z" fill="white"/>
<path d="M9.69234 359.521C4.9821 362.238 2.44581 366.677 3.9857 369.304C5.61617 371.931 10.5982 371.749 15.3084 369.032C20.0187 366.224 22.5549 361.876 21.0151 359.249C19.4752 356.622 14.4026 356.713 9.69234 359.521Z" fill="#FFE794"/>
<path d="M-7.79 392.13L-8.51465 391.677L5.43494 369.304L6.06901 369.757L-7.79 392.13Z" fill="#FFE794"/>
<path d="M13.3156 392.492L10.9604 368.035L11.7757 367.944L14.1308 392.401L13.3156 392.492Z" fill="#FFE794"/>
<path d="M39.2213 377.001L16.8477 366.041L17.21 365.316L39.5837 376.277L39.2213 377.001Z" fill="#FFE794"/>
<path d="M18.2974 362.238L18.1162 361.514L47.4647 354.448L47.6458 355.173L18.2974 362.238Z" fill="#FFE794"/>
<path d="M15.5794 359.973L14.9453 359.52L23.6412 345.39L24.2752 345.843L15.5794 359.973Z" fill="#FFE794"/>
<path d="M7.97124 361.423L3.17041 354.448L3.80448 353.995L8.6959 360.97L7.97124 361.423Z" fill="#FFE794"/>
<path d="M-11.6853 370.3L-11.7759 369.575L6.61221 366.133L6.79337 366.948L-11.6853 370.3Z" fill="#FFE794"/>
<path d="M91.4883 458.797L108.608 396.567" stroke="#FEC077" stroke-width="1.06662"/>
<path d="M115.13 397.291C131.616 406.983 140.312 422.563 134.696 432.074C129.08 441.586 111.235 441.404 94.7496 431.712C78.3543 422.02 69.5679 406.349 75.1839 396.929C80.8 387.418 98.6446 387.599 115.13 397.291Z" fill="white"/>
<path d="M111.778 404.448C116.488 407.165 119.024 411.513 117.484 414.14C115.944 416.767 110.872 416.676 106.162 413.868C101.451 411.151 98.915 406.712 100.455 404.085C102.085 401.549 107.067 401.64 111.778 404.448Z" fill="#FEC077"/>
<path d="M129.26 437.057L129.985 436.604L116.126 414.23L115.401 414.683L129.26 437.057Z" fill="#FEC077"/>
<path d="M108.155 437.42L110.51 412.963L109.785 412.872L107.339 437.329L108.155 437.42Z" fill="#FEC077"/>
<path d="M82.2481 421.93L104.622 410.879L104.259 410.154L81.8857 421.205L82.2481 421.93Z" fill="#FEC077"/>
<path d="M103.172 407.165L103.354 406.35L74.0957 399.375L73.9146 400.1L103.172 407.165Z" fill="#FEC077"/>
<path d="M105.89 404.9L106.615 404.447L97.919 390.316L97.1943 390.769L105.89 404.9Z" fill="#FEC077"/>
<path d="M113.499 406.351L118.39 399.376L117.666 398.923L112.865 405.898L113.499 406.351Z" fill="#FEC077"/>
<path d="M133.155 415.226L133.336 414.411L114.948 411.06L114.767 411.875L133.155 415.226Z" fill="#FEC077"/>
<path d="M61.0527 450.825L83.1547 322.38" stroke="#FEC077" stroke-width="1.06662"/>
<path d="M86.9592 329.898C91.8506 332.253 94.7492 336.419 93.4811 339.137C92.1224 341.945 87.1404 342.217 82.1584 339.862C77.267 337.506 74.3683 333.34 75.6365 330.622C76.9952 327.905 82.0678 327.542 86.9592 329.898Z" fill="white"/>
<path d="M107.25 360.877L107.884 360.424L92.1226 339.318L91.3979 339.862L107.25 360.877Z" fill="white"/>
<path d="M86.1451 363.141L86.4168 338.503H85.6016L85.4204 363.141H86.1451Z" fill="white"/>
<path d="M59.0598 349.916L80.3465 337.054L79.9842 336.329L58.6069 349.192L59.0598 349.916Z" fill="white"/>
<path d="M78.6261 333.43L78.7167 332.615L48.9153 328.086L48.8247 328.901L78.6261 333.43Z" fill="white"/>
<path d="M81.1625 330.893L81.7965 330.44L71.9231 317.125L71.2891 317.578L81.1625 330.893Z" fill="white"/>
<path d="M88.8623 331.709L93.1197 324.372L92.395 323.919L88.1377 331.347L88.8623 331.709Z" fill="white"/>
<path d="M109.152 338.864L109.242 338.049L90.6731 336.237L90.5825 337.053L109.152 338.864Z" fill="white"/>
<path d="M-39.2222 104.169H195.566C189.678 90.5818 179.804 80.1649 168.482 76.2699C154.623 71.5597 139.133 76.8134 128.535 89.8572C104.622 57.1572 69.5665 40.4901 35.9607 45.925C6.61218 50.7259 -21.1058 72.3749 -39.2222 104.169Z" fill="white" fill-opacity="0.4" stroke="white" stroke-opacity="0.4" stroke-width="0.88885"/>
<path d="M283.339 39.4035H371.204C368.214 33.6063 363.051 28.8054 356.62 27.2655C349.373 25.5445 340.859 29.0772 338.051 36.052C334.88 23.0082 320.568 14.1312 307.344 16.3052C295.658 18.2074 286.057 27.9902 283.339 39.4035Z" fill="white" stroke="white" stroke-width="0.88885"/>
<path d="M576.824 108.246H443.307C447.836 99.369 455.716 92.0319 465.409 89.7674C476.46 87.2311 489.413 92.5754 493.67 103.083C498.471 83.3361 520.211 69.8394 540.229 73.1003C557.983 75.9989 572.657 90.8543 576.824 108.246Z" fill="white" fill-opacity="0.4" stroke="white" stroke-opacity="0.4" stroke-width="0.88885"/>
<path d="M179.805 223.466H46.2876C50.9073 214.589 58.7879 207.252 68.3895 204.987C79.4405 202.451 92.3937 207.795 96.651 218.303C101.452 198.556 123.191 185.059 143.301 188.32C160.964 191.128 175.638 206.074 179.805 223.466Z" stroke="white" stroke-width="0.88885"/>
<path d="M193.935 217.488C202.359 222.561 212.051 223.919 221.653 222.561C221.2 218.937 219.841 215.042 218.845 211.419C218.845 211.419 205.529 211.872 191.398 191.582C184.605 181.708 186.507 168.121 190.945 154.262C195.565 139.407 203.174 124.279 205.982 113.047C208.156 104.533 203.536 85.8729 191.217 87.8656C191.157 87.8656 191.066 87.8958 190.945 87.9562C189.677 88.228 188.5 88.8621 187.413 89.4961C171.017 99.913 166.488 119.66 166.579 139.588C166.67 152.632 168.662 165.675 170.655 176.092C173.554 191.763 179.713 208.883 193.935 217.488Z" fill="white"/>
<path d="M166.579 139.588C166.67 139.678 166.76 139.678 166.851 139.678C172.557 141.218 179.623 138.591 183.789 142.758C186.054 145.023 186.507 148.555 188.047 151.363C188.681 152.541 189.768 153.628 190.855 154.262C195.565 139.407 203.174 124.279 205.982 113.047C208.156 104.533 203.536 85.8729 191.217 87.8656C191.157 87.8656 191.066 87.8958 190.945 87.9562C189.677 88.228 188.5 88.8621 187.413 89.4961C171.017 99.913 166.488 119.66 166.579 139.588Z" fill="#FEC077"/>
<path d="M181.978 98.916C180.8 100.909 179.895 103.083 179.17 105.257" stroke="#500724" stroke-width="0.71108" stroke-linecap="round" stroke-linejoin="round"/>
<path d="M182.521 105.257C181.857 106.767 181.404 108.306 181.163 109.877" stroke="#500724" stroke-width="0.71108" stroke-linecap="round" stroke-linejoin="round"/>
<path d="M183.88 101.996C184.605 100.366 185.51 98.9163 186.597 97.5576" stroke="#500724" stroke-width="0.71108" stroke-linecap="round" stroke-linejoin="round"/>
<path d="M175.638 298.647C176.544 351.184 226.907 354.355 267.76 359.427C308.612 364.59 329.808 349.735 332.888 321.383C335.968 293.031 315.406 283.973 309.88 275.549C304.445 267.125 308.793 249.189 308.793 249.189C308.793 249.189 316.674 229.08 318.938 217.848C321.112 207.159 315.224 185.42 314.5 182.974C314.439 182.793 314.409 182.702 314.409 182.702C314.409 182.702 315.134 182.431 316.221 181.887C316.281 181.827 316.311 181.797 316.311 181.797C322.471 178.807 341.765 168.662 342.218 158.789C342.399 155.709 341.946 152.086 341.221 148.281C341.161 148.04 341.101 147.768 341.04 147.466C341.04 147.406 341.04 147.376 341.04 147.376C338.866 137.23 334.79 126.995 334.79 126.995C334.79 126.995 334.82 126.753 334.881 126.27C335.152 121.107 337.236 88.1351 332.888 73.9138C332.827 73.793 332.797 73.7326 332.797 73.7326C331.801 70.5623 330.533 68.2977 328.721 67.5731C318.576 63.678 295.84 99.5484 295.84 99.5484C291.311 99.0955 286.872 98.9143 282.615 98.8237C265.586 98.7332 252.451 101.179 252.451 101.179C252.451 101.179 226.454 66.3955 220.295 73.008C214.045 79.6204 222.106 126.632 220.566 130.346C219.027 134.06 218.121 145.111 218.121 145.111C217.215 162.956 225.82 170.836 227.994 172.557C228.266 172.829 228.447 172.92 228.447 172.92C228.507 173.161 228.598 173.403 228.719 173.644C230.621 180.076 227.36 191.942 221.201 203.717C220.385 205.348 218.845 207.431 216.853 209.786C214.95 212.051 212.595 214.768 209.968 217.758C206.345 222.015 202.178 226.906 198.102 232.613C194.841 237.142 191.58 242.033 188.682 247.559C185.511 253.266 182.613 259.606 180.439 266.491C178.808 271.473 177.54 276.726 176.725 282.252C176 287.505 175.547 292.94 175.638 298.647Z" fill="white"/>
<path d="M341.04 147.376C338.866 137.23 334.79 126.995 334.79 126.995C334.79 126.995 334.82 126.753 334.88 126.27C335.152 121.107 337.235 88.1351 332.887 73.9138C332.827 73.793 332.797 73.7326 332.797 73.7326C331.8 70.5623 330.532 68.2977 328.721 67.5731C318.575 63.678 295.839 99.5484 295.839 99.5484C291.31 99.0955 286.872 98.9143 282.614 98.8237C282.343 100.635 282.162 102.356 282.162 104.168C282.071 108.697 283.158 113.226 284.335 117.665C285.543 122.617 286.842 127.568 288.231 132.52C289.408 136.415 290.495 140.401 292.578 143.933C296.202 150.093 302.633 154.622 309.698 155.981C315.586 157.068 321.655 156.071 327.543 154.803C331.257 153.988 335.061 153.082 338.232 150.999C339.319 150.274 340.315 149.368 341.221 148.281L341.04 147.376Z" fill="#FEC077"/>
<path d="M323.196 345.568C323.196 345.568 339.591 327.361 331.71 304.625C331.71 304.625 330.714 296.473 319.301 285.241C310.967 276.998 308.703 273.193 308.703 273.193" stroke="#500724" stroke-width="0.71108" stroke-linecap="round" stroke-linejoin="round"/>
<path d="M301.999 134.15C301.818 137.139 304.083 139.585 307.072 139.766C309.971 139.947 312.507 137.592 312.688 134.694C312.779 131.704 310.514 129.259 307.615 129.078C304.626 128.896 302.09 131.161 301.999 134.15Z" fill="#500724"/>
<path d="M249.825 136.958C249.643 139.947 251.908 142.393 254.897 142.574C257.886 142.664 260.332 140.4 260.513 137.501C260.604 134.512 258.339 131.976 255.441 131.885C252.451 131.704 249.915 133.969 249.825 136.958Z" fill="#500724"/>
<path d="M289.952 153.081C288.322 153.987 286.661 154.893 284.97 155.799C284.246 156.252 283.43 156.705 282.615 156.795C280.985 156.976 279.445 156.161 278.086 155.255C276.275 154.168 274.372 152.9 273.466 150.998C273.376 150.726 273.285 150.454 273.376 150.273C273.466 149.639 274.372 149.639 275.006 149.73C279.264 150.636 282.978 151.36 287.235 150.092C288.322 149.82 289.681 149.005 290.768 149.639C292.579 150.636 291.221 152.357 289.952 153.081Z" fill="#500724"/>
<path d="M282.344 161.687L282.072 156.252" stroke="#500724" stroke-width="0.71108" stroke-linecap="round" stroke-linejoin="round"/>
<path d="M289.953 160.057C289.772 161.053 289.048 162.049 287.961 162.593C287.508 162.774 287.055 162.865 286.602 162.955C285.696 163.046 284.79 163.136 283.975 162.865C283.16 162.593 282.435 161.959 282.435 161.325" stroke="#500724" stroke-width="0.71108" stroke-linecap="round" stroke-linejoin="round"/>
<path d="M274.373 161.324C274.916 162.592 276.547 163.588 278.449 163.497C280.17 163.497 282.434 162.501 282.253 161.052" stroke="#500724" stroke-width="0.71108" stroke-linecap="round" stroke-linejoin="round"/>
<path d="M235.061 154.984C234.789 159.513 238.322 163.317 242.851 163.589C247.38 163.77 251.275 160.328 251.456 155.799C251.728 151.18 248.195 147.375 243.666 147.103C239.137 146.922 235.242 150.455 235.061 154.984Z" fill="#F472B6"/>
<path d="M311.512 153.535C311.24 158.155 314.773 161.959 319.302 162.231C323.831 162.412 327.726 158.97 327.907 154.35C328.179 149.821 324.646 146.017 320.117 145.745C315.588 145.564 311.693 149.006 311.512 153.535Z" fill="#F472B6"/>
<path d="M241.311 153.626L198.466 144.024" stroke="#11133D" stroke-width="0.71108" stroke-linecap="round" stroke-linejoin="round"/>
<path d="M242.036 157.249L198.919 154.713" stroke="#11133D" stroke-width="0.71108" stroke-linecap="round" stroke-linejoin="round"/>
<path d="M242.851 160.963L201.637 170.021" stroke="#11133D" stroke-width="0.71108" stroke-linecap="round" stroke-linejoin="round"/>
<path d="M318.849 156.255L350.371 161.962" stroke="#11133D" stroke-width="0.71108" stroke-linecap="round" stroke-linejoin="round"/>
<path d="M319.03 153.446L352.364 153.809" stroke="#11133D" stroke-width="0.71108" stroke-linecap="round" stroke-linejoin="round"/>
<path d="M319.211 150.729L353.451 142.305" stroke="#11133D" stroke-width="0.71108" stroke-linecap="round" stroke-linejoin="round"/>
<path d="M180.438 321.384C189.768 342.399 208.428 358.522 228.99 368.033C249.734 377.726 273.013 382.798 296.111 382.255C309.155 381.983 322.108 379.9 334.427 375.914C348.377 371.385 362.87 362.327 368.033 347.924C370.932 339.772 370.298 328.449 361.421 324.282C358.975 323.195 356.167 323.195 353.54 323.558C345.569 324.826 338.141 329.627 331.348 333.522C322.199 338.866 313.322 344.482 303.992 349.283C297.561 352.544 290.858 355.714 283.792 357.526C280.441 358.341 277.089 358.975 273.647 359.156C252.27 360.062 231.889 350.189 214.588 338.504C209.243 334.88 204.443 329.989 198.827 326.819C198.766 326.758 198.676 326.698 198.555 326.638C195.384 324.916 191.942 324.011 188.5 323.195C187.504 323.014 180.801 322.199 180.438 321.384Z" fill="white"/>
<path d="M227.994 172.557C237.415 178.354 248.737 182.068 248.919 182.158C249.009 182.249 249.1 182.339 249.1 182.43C249.009 182.611 248.919 182.702 248.828 182.702C248.828 182.702 248.798 182.672 248.737 182.611C248.647 182.611 237.958 179.079 228.719 173.644L227.994 172.557Z" fill="#500724"/>
<path d="M289.59 186.868C289.681 186.958 289.771 187.049 289.862 187.049C290.043 187.049 306.71 185.328 314.5 182.973C314.44 182.792 314.41 182.701 314.41 182.701C314.41 182.701 315.134 182.429 316.221 181.886C315.557 182.067 314.953 182.248 314.41 182.429C306.62 184.784 290.043 186.596 289.862 186.596C289.681 186.596 289.59 186.687 289.59 186.868Z" fill="#500724"/>
<path d="M228.084 173.01C231.617 177.358 235.875 181.162 240.585 184.151" stroke="#500724" stroke-width="0.71108" stroke-linecap="round" stroke-linejoin="round"/>
<path d="M309.426 274.553C301.908 260.331 289.045 249.009 284.245 233.7" stroke="#500724" stroke-width="0.71108" stroke-linecap="round" stroke-linejoin="round"/>
<path d="M299.915 217.486C300.73 235.603 302.995 253.991 307.705 271.473" stroke="#500724" stroke-width="0.71108" stroke-linecap="round" stroke-linejoin="round"/>
<path d="M283.792 357.525C283.792 357.525 229.896 354.807 201.544 326.184" stroke="#500724" stroke-width="0.71108" stroke-linecap="round" stroke-linejoin="round"/>
<path d="M221.382 79.258C221.563 78.8051 222.197 78.6239 222.56 79.0768C226.092 83.6965 241.22 103.624 241.582 105.708C242.035 107.972 228.085 115.581 223.284 124.911C223.284 124.911 217.94 90.6713 221.382 79.258Z" fill="#F472B6"/>
<path d="M235.513 94.476C234.426 93.9325 233.339 93.4796 232.162 93.5702C230.984 93.6608 229.716 94.3854 229.535 95.563C229.354 96.2876 229.625 97.0123 229.807 97.6464C231.075 101.088 233.249 104.168 236.057 106.614C234.607 105.527 232.343 106.252 231.437 107.792C230.531 109.241 230.803 111.234 231.618 112.864C233.249 116.125 237.506 117.846 241.039 116.669C245.205 115.219 247.651 109.965 245.749 105.98C243.575 101.179 240.223 96.9217 235.513 94.476Z" fill="white"/>
<path d="M233.43 93.5701C233.43 93.5701 229.897 92.9361 229.535 95.5629C229.172 98.1898 233.611 104.168 235.513 106.342C235.513 106.342 231.437 105.074 230.894 109.513C230.894 109.513 230.441 111.596 232.524 114.223C232.524 114.223 224.825 120.654 223.285 124.911" stroke="#500724" stroke-width="0.71108" stroke-linecap="round" stroke-linejoin="round"/>
<path d="M330.08 118.297C330.08 118.297 332.616 83.4233 329.446 75.0898C326.185 66.7563 310.695 104.167 310.695 104.167L330.08 118.297Z" fill="#F472B6"/>
<path d="M322.019 106.34C322.109 105.887 322.109 105.434 321.837 105.162C321.656 104.89 321.385 104.709 321.022 104.619C319.301 103.985 317.308 103.985 315.587 104.8C317.49 103.079 319.482 101.448 320.841 99.2743C322.2 97.1004 322.834 94.3829 322.019 91.9372C321.656 91.122 321.203 90.3068 320.479 89.7633C319.211 88.8574 317.49 88.948 316.04 89.5821C314.591 90.2162 313.413 91.3032 312.417 92.4807C309.156 95.9228 306.348 99.9084 304.174 104.166C301.909 108.604 303.721 114.764 309.609 113.949C313.595 113.405 321.385 111.05 322.019 106.34Z" fill="white"/>
<path d="M317.489 89.1306C317.489 89.1306 322.652 88.6777 322.381 94.022C322.109 99.3663 315.587 104.801 315.587 104.801C315.587 104.801 321.928 102.627 322.109 105.888C322.199 109.149 319.21 110.417 319.21 110.417L330.08 118.298" stroke="#500724" stroke-width="0.71108" stroke-linecap="round" stroke-linejoin="round"/>
<path d="M209.967 217.758C212.866 218.966 215.734 220.174 218.573 221.382C231.616 226.998 244.932 232.614 259.063 233.429C260.331 233.52 261.78 233.429 262.324 232.342C262.867 231.164 261.961 229.896 261.055 228.99C257.976 226.092 254.262 223.918 250.457 222.197C241.761 218.121 232.341 215.947 223.283 212.867C221.471 212.233 219.207 210.874 216.851 209.787C214.949 212.052 212.594 214.769 209.967 217.758Z" fill="white"/>
<path d="M188.681 247.559C189.678 247.74 190.674 247.831 191.67 247.922C205.348 248.827 218.935 252.088 231.526 257.523C236.961 259.878 242.396 262.686 248.375 263.139C249.643 263.23 251.092 263.139 251.998 262.234C252.904 261.328 252.994 259.788 252.541 258.61C252.088 257.342 251.183 256.436 250.186 255.53C242.758 248.465 233.338 244.027 223.736 240.675C216.309 238.048 208.7 236.146 201.272 233.791C200.276 233.519 199.189 233.066 198.102 232.613C194.841 237.142 191.58 242.034 188.681 247.559Z" fill="white"/>
<path d="M176.724 282.251C188.681 281.799 200.638 283.429 212.051 286.962C217.214 288.502 222.196 290.494 227.54 291.038C228.899 291.219 230.53 291.31 231.617 290.404C233.247 289.317 233.428 286.871 232.522 285.15C231.617 283.429 229.986 282.161 228.356 281.164C221.29 276.907 213.229 274.733 205.257 272.559C197.105 270.295 188.862 268.121 180.438 266.49C178.807 271.472 177.539 276.726 176.724 282.251Z" fill="white"/>
<path d="M283.792 357.526C285.514 361.692 288.503 365.406 292.398 367.943C293.847 368.939 295.387 369.754 296.474 371.113C298.648 374.102 297.561 378.269 296.293 381.802C296.232 381.922 296.172 382.073 296.112 382.254C309.155 381.983 322.109 379.899 334.428 375.914C348.377 371.385 362.87 362.326 368.033 347.924C370.932 339.772 370.298 328.449 361.421 324.282C358.975 323.195 356.167 323.195 353.54 323.558C345.569 324.826 338.142 329.626 331.348 333.522C322.199 338.866 313.322 344.482 303.992 349.283C297.561 352.544 290.858 355.714 283.792 357.526Z" fill="white"/>
<path d="M361.238 344.482C360.513 345.388 360.242 346.294 360.695 346.747C361.147 347.109 362.053 346.656 362.778 345.841C363.503 345.026 363.684 344.029 363.321 343.667C362.869 343.304 361.963 343.667 361.238 344.482Z" fill="#FEE8D0"/>
<path d="M360.695 340.497C359.97 341.312 359.699 342.309 360.152 342.671C360.605 343.033 361.51 342.671 362.235 341.856C362.96 340.95 363.141 339.953 362.778 339.591C362.326 339.229 361.42 339.682 360.695 340.497Z" fill="#FEE8D0"/>
<path d="M357.163 345.117C356.438 345.932 356.257 346.928 356.619 347.291C357.072 347.653 357.978 347.291 358.703 346.475C359.427 345.57 359.699 344.664 359.246 344.302C358.793 343.849 357.887 344.302 357.163 345.117Z" fill="#FEE8D0"/>
<path d="M185.238 303.45C184.785 302.363 184.513 301.186 184.422 300.099" stroke="#500724" stroke-width="0.71108" stroke-linecap="round" stroke-linejoin="round"/>
<path d="M182.52 295.659C181.977 296.927 181.977 298.286 182.339 299.645" stroke="#500724" stroke-width="0.71108" stroke-linecap="round" stroke-linejoin="round"/>
<path d="M182.338 302.271C182.701 303.781 183.184 305.291 183.788 306.801" stroke="#500724" stroke-width="0.71108" stroke-linecap="round" stroke-linejoin="round"/>
<path d="M316.219 207.16C316.279 205.65 316.128 204.141 315.766 202.631" stroke="#500724" stroke-width="0.71108" stroke-linecap="round" stroke-linejoin="round"/>
<path d="M313.864 203.718C313.743 202.691 313.531 201.695 313.229 200.729" stroke="#500724" stroke-width="0.71108" stroke-linecap="round" stroke-linejoin="round"/>
<path d="M314.226 206.073C314.286 207.16 314.226 208.277 314.045 209.425" stroke="#500724" stroke-width="0.71108" stroke-linecap="round" stroke-linejoin="round"/>
<path d="M229.624 78.3531C228.809 77.4473 227.812 76.7227 226.635 76.3604" stroke="#500724" stroke-width="0.71108" stroke-linecap="round" stroke-linejoin="round"/>
<path d="M227.088 78.5353C226.363 77.6294 225.457 76.9954 224.37 76.7236" stroke="#500724" stroke-width="0.71108" stroke-linecap="round" stroke-linejoin="round"/>
<path d="M230.621 81.5238C230.077 80.5274 229.353 79.6216 228.356 79.0781" stroke="#500724" stroke-width="0.71108" stroke-linecap="round" stroke-linejoin="round"/>
<path d="M311.782 319.303C327.544 318.76 343.214 317.763 358.975 316.405C375.19 315.046 391.404 313.325 407.618 311.423L422.745 179.264L341.403 151.184C341.403 151.184 329.536 185.876 320.297 225.008C318.123 233.885 316.13 243.124 314.409 252.273C313.564 256.802 312.809 261.331 312.145 265.86C310.695 275.733 309.699 285.335 309.518 294.031C309.337 300.825 309.608 306.984 310.514 312.419C310.937 314.774 311.36 317.069 311.782 319.303Z" fill="#FFF9ED"/>
<path d="M314.41 252.273C317.399 254.085 320.207 255.624 322.472 256.802C329.084 260.425 336.965 263.777 344.03 261.331C345.299 260.969 346.476 260.335 347.291 259.429C349.103 257.527 349.012 254.719 348.288 252.273C345.751 243.668 336.421 237.418 329.084 232.073C326.186 230.08 323.287 227.454 320.298 225.008C318.124 233.885 316.131 243.124 314.41 252.273Z" fill="#FFE794"/>
<path d="M309.519 294.031C309.971 294.303 310.424 294.484 310.877 294.756C317.49 298.289 325.37 301.731 332.526 299.285C333.704 298.832 334.972 298.289 335.787 297.383C337.508 295.481 337.508 292.673 336.784 290.227C334.157 281.531 324.917 275.371 317.49 270.027C315.769 268.759 313.957 267.31 312.145 265.86C310.696 275.734 309.7 285.335 309.519 294.031Z" fill="#FFE794"/>
<path d="M227.542 387.694H152.902V209.429H227.542V387.694Z" fill="#4F359B"/>
<path d="M180.983 274.104H106.343L152.902 209.429H227.542L180.983 274.104Z" fill="#250A58"/>
<path d="M429.358 274.377H503.997L457.438 209.701H382.799L429.358 274.377Z" fill="#250A58"/>
<path d="M227.541 209.701V387.694H457.437V209.701H227.541Z" fill="#9972D8"/>
<path d="M378.27 267.311H309.156C303.721 267.311 299.192 262.873 299.192 257.438C299.192 251.912 303.721 247.474 309.156 247.474H378.27C383.705 247.474 388.143 251.912 388.143 257.438C388.143 262.873 383.705 267.311 378.27 267.311Z" fill="#250A58"/>
<path d="M343.938 109.155C341.493 116.13 338.775 125.369 336.058 137.507C327.996 174.193 444.394 204.9 460.608 174.012C470.3 155.442 468.217 136.33 464.956 123.92C464.895 123.92 464.895 123.89 464.956 123.829C462.782 115.677 460.064 110.423 460.064 110.423C457.709 104.535 451.187 96.8359 428.632 90.0423C427.364 89.6799 426.187 89.4082 424.918 88.9553C422.745 88.4118 420.48 87.8683 418.034 87.2342C416.766 86.9927 415.468 86.6907 414.139 86.3284C413.868 86.3284 413.686 86.2378 413.415 86.2378C411.331 85.7849 409.248 85.4226 407.255 85.0603C406.077 84.8791 404.991 84.7885 403.904 84.6074C401.639 84.3356 399.374 84.0639 397.2 83.8827C393.487 83.7015 389.863 83.611 386.512 83.7016C365.95 84.3356 352.544 90.4952 352.544 90.4952C352.544 90.4952 348.83 95.1148 343.938 109.155Z" fill="white"/>
<path d="M464.956 123.92C464.956 123.92 476.097 77.9952 466.586 68.2124C457.075 58.4296 419.574 99.1913 419.574 99.1913L461.151 128.54L464.956 123.92Z" fill="white"/>
<path d="M390.86 88.6841C390.86 88.6841 360.515 52.4514 347.018 54.3536C333.431 56.2558 344.12 110.605 344.12 110.605L392.4 94.4813L390.86 88.6841Z" fill="white"/>
<path d="M429.992 130.261C429.177 133.432 431.079 136.783 434.249 137.598C437.51 138.504 440.771 136.602 441.677 133.432C442.492 130.171 440.59 126.91 437.42 126.004C434.159 125.098 430.898 127 429.992 130.261Z" fill="#500724"/>
<path d="M371.929 120.841C371.023 124.101 372.926 127.362 376.187 128.268C379.357 129.083 382.708 127.181 383.524 124.011C384.43 120.75 382.527 117.489 379.357 116.583C376.096 115.768 372.835 117.67 371.929 120.841Z" fill="#500724"/>
<path d="M410.063 145.751C408.251 146.294 406.47 146.808 404.719 147.291C403.903 147.562 403.088 147.744 402.273 147.744C400.733 147.562 399.465 146.475 398.287 145.388C396.838 143.939 395.298 142.309 394.845 140.316C394.755 140.044 394.755 139.863 394.845 139.591C395.117 139.048 395.932 139.229 396.566 139.501C400.371 141.131 403.813 142.671 408.07 142.309C409.157 142.309 410.516 141.856 411.422 142.58C412.962 143.939 411.422 145.298 410.063 145.751Z" fill="#F472B6"/>
<path d="M401.005 152.365L401.911 147.111" stroke="#500724" stroke-width="0.71108" stroke-linecap="round" stroke-linejoin="round"/>
<path d="M408.522 152.273C408.16 153.27 407.345 154.085 406.167 154.266C405.714 154.357 405.261 154.447 404.718 154.357C403.903 154.357 403.087 154.176 402.363 153.723C401.638 153.36 401.095 152.636 401.185 151.911" stroke="#500724" stroke-width="0.71108" stroke-linecap="round" stroke-linejoin="round"/>
<path d="M393.577 150.372C393.758 151.64 395.117 152.908 396.929 153.271C398.559 153.633 401.005 153.09 401.095 151.731" stroke="#500724" stroke-width="0.71108" stroke-linecap="round" stroke-linejoin="round"/>
<path d="M351.366 137.146C350.008 142.037 352.906 147.2 357.888 148.468C362.78 149.827 367.943 146.928 369.211 141.946C370.57 136.964 367.671 131.892 362.689 130.624C357.798 129.265 352.635 132.164 351.366 137.146Z" fill="#F472B6"/>
<path d="M435.879 153.903C434.52 158.885 437.419 163.958 442.401 165.316C447.292 166.585 452.456 163.686 453.724 158.704C455.082 153.812 452.184 148.74 447.202 147.381C442.31 146.022 437.147 149.012 435.879 153.903Z" fill="#F472B6"/>
<path d="M362.145 135.785L323.376 115.042" stroke="#11133D" stroke-width="0.71108" stroke-linecap="round" stroke-linejoin="round"/>
<path d="M361.874 139.499L320.931 125.459" stroke="#11133D" stroke-width="0.71108" stroke-linecap="round" stroke-linejoin="round"/>
<path d="M361.693 143.213L319.481 140.948" stroke="#11133D" stroke-width="0.71108" stroke-linecap="round" stroke-linejoin="round"/>
<path d="M444.394 160.334L473.199 174.284" stroke="#11133D" stroke-width="0.71108" stroke-linecap="round" stroke-linejoin="round"/>
<path d="M445.3 157.799L477.366 167.038" stroke="#11133D" stroke-width="0.71108" stroke-linecap="round" stroke-linejoin="round"/>
<path d="M446.206 155.171L481.533 156.167" stroke="#11133D" stroke-width="0.71108" stroke-linecap="round" stroke-linejoin="round"/>
<path d="M377.543 87.3244C377.543 87.3244 358.793 63.0485 351.637 63.592C344.481 64.1355 348.376 97.9225 348.376 97.9225L377.543 87.3244Z" fill="#F472B6"/>
<path d="M368.123 76.999C366.946 76.6367 365.496 76.4555 364.681 77.3613C363.775 78.2672 363.956 79.7165 364.5 80.894C364.953 82.0716 365.677 83.2491 366.583 84.2455C365.406 83.6115 364.047 83.3397 362.688 83.3397C362.054 83.3397 361.511 83.5209 361.058 83.8832C360.424 84.4267 360.333 85.4231 360.695 86.1478C361.058 86.963 361.601 87.5065 362.235 88.1406C360.786 87.6877 359.246 88.6841 358.521 90.0428C357.887 91.3109 357.887 92.9414 358.25 94.3907C358.884 96.7458 360.514 99.0104 362.869 99.6444C364.862 100.188 366.946 99.5539 368.757 98.7386C371.052 97.8328 373.286 96.776 375.46 95.5683C377.453 94.4813 379.627 93.1226 380.895 91.2203C382.163 89.137 381.62 88.3217 380.17 86.7818C376.638 82.8868 373.377 78.7201 368.123 76.999Z" fill="white"/>
<path d="M461.514 113.502C461.514 113.502 468.579 83.61 463.688 78.3563C458.796 73.1025 434.883 97.469 434.883 97.469L461.514 113.502Z" fill="#F472B6"/>
<path d="M443.216 89.9507C444.394 89.6789 445.843 89.5883 446.658 90.4941C447.474 91.4 447.202 92.9398 446.658 94.0268C446.024 95.2044 445.209 96.382 444.303 97.2878C445.571 96.7443 446.93 96.4725 448.289 96.6537C448.832 96.6537 449.376 96.8349 449.829 97.1972C450.372 97.8313 450.372 98.8277 450.01 99.5523C449.648 100.277 449.013 100.82 448.379 101.364C449.829 101.092 451.369 102.179 452.003 103.538C452.546 104.897 452.365 106.527 451.912 107.976C451.187 110.241 449.376 112.415 447.021 112.868C445.028 113.321 443.035 112.505 441.133 111.6C438.959 110.573 436.815 109.396 434.702 108.067C432.799 106.799 430.716 105.35 429.538 103.266C428.361 101.183 428.995 100.368 430.535 98.9182C434.43 95.295 437.872 91.3094 443.216 89.9507Z" fill="white"/>
<path d="M418.035 87.2344C417.582 91.4011 417.491 95.4773 417.401 96.9266C417.129 99.01 416.857 101.003 417.129 102.996C417.31 104.264 417.854 105.713 419.122 105.713C420.209 105.713 420.843 104.717 421.205 103.72C421.568 102.814 422.021 101.909 422.202 101.003C422.836 99.01 423.198 97.0172 423.651 95.0244C423.651 94.7527 423.742 94.4809 423.742 94.2092C423.923 93.3033 424.466 91.3105 424.919 88.9554C422.745 88.4119 420.481 87.8684 418.035 87.2344Z" fill="#FEC077"/>
<path d="M407.256 85.0605C406.803 89.1367 406.713 93.0317 406.622 94.481C406.35 96.4738 406.079 98.5572 406.35 100.55C406.532 101.728 407.075 103.267 408.343 103.267C409.34 103.267 410.064 102.18 410.517 101.275C411.785 98.2855 412.419 95.0245 412.963 91.7636C413.144 90.7672 413.687 88.7744 414.14 86.3287C413.869 86.3287 413.687 86.2381 413.416 86.2381C411.332 85.7852 409.249 85.4229 407.256 85.0605Z" fill="#FEC077"/>
<path d="M397.201 83.8828C396.929 87.0532 396.839 89.8612 396.748 91.0388C396.476 93.0316 396.295 95.1149 396.476 97.1077C396.657 98.2853 397.201 99.7346 398.469 99.8252C399.556 99.8252 400.19 98.7382 400.643 97.8324C401.911 94.8432 402.545 91.5823 403.179 88.3213C403.27 87.5967 403.632 86.2379 403.904 84.6075C401.639 84.3357 399.375 84.064 397.201 83.8828Z" fill="#FEC077"/>
<path d="M411.06 184.428C411.06 184.428 369.573 181.801 345.66 159.518" stroke="#500724" stroke-width="0.71108" stroke-linecap="round" stroke-linejoin="round"/>
<path d="M374.554 178.448C374.554 178.448 360.876 172.289 351.637 164.317" stroke="#500724" stroke-width="0.71108" stroke-linecap="round" stroke-linejoin="round"/>
<path d="M427.999 201.093H433.162C440.499 201.184 446.658 206.528 447.745 213.684C451.006 233.884 451.097 253.54 441.858 261.602C441.495 261.904 441.103 262.176 440.68 262.417C439.412 263.414 437.872 264.138 436.242 264.591C432.618 265.678 429.538 266.131 426.912 266.041C426.64 266.041 426.459 266.041 426.187 265.95C406.259 264.863 414.049 234.065 414.502 227.634C414.683 225.732 414.23 222.742 413.415 219.391C411.241 209.97 418.306 201.003 427.999 201.093Z" fill="white"/>
<path d="M440.68 262.417C441.103 262.176 441.495 261.904 441.858 261.602C445.572 251.185 444.756 239.681 444.756 239.5C444.666 239.319 444.485 239.138 444.394 239.228C444.122 239.228 444.032 239.319 444.032 239.591C444.032 239.681 444.847 251.91 440.68 262.417Z" fill="#500724"/>
<path d="M426.188 265.95C426.459 266.041 426.64 266.041 426.912 266.041C432.891 254.718 431.804 239.591 431.804 239.5C431.804 239.228 431.713 239.047 431.441 239.138C431.26 239.138 431.079 239.319 431.169 239.5C431.169 239.681 432.166 254.899 426.188 265.95Z" fill="#500724"/>
<path d="M355.623 200.731H360.786C368.123 200.731 374.283 206.075 375.461 213.322C378.631 233.431 378.722 253.178 369.482 261.24C369.12 261.511 368.758 261.783 368.395 262.055C367.037 263.051 365.587 263.685 363.866 264.229C360.243 265.316 357.254 265.678 354.627 265.678C354.264 265.678 354.083 265.678 353.812 265.588C333.974 264.501 341.764 233.703 342.217 227.272C342.308 225.279 341.855 222.29 341.13 219.029C338.956 209.608 346.022 200.641 355.623 200.731Z" fill="white"/>
<path d="M368.396 262.055C368.758 261.753 369.12 261.481 369.482 261.24C373.196 250.823 372.381 239.228 372.381 239.138C372.381 238.866 372.2 238.685 372.019 238.776C371.747 238.776 371.656 238.957 371.656 239.228C371.656 239.319 372.472 251.548 368.396 262.055Z" fill="#500724"/>
<path d="M353.811 265.587C354.083 265.678 354.264 265.678 354.626 265.678C360.514 254.355 359.518 239.228 359.518 239.047C359.518 238.866 359.337 238.685 359.065 238.685C358.884 238.685 358.793 238.866 358.793 239.137C358.793 239.319 359.789 254.536 353.811 265.587Z" fill="#500724"/>
<path d="M310.968 198.376H315.497C321.747 198.466 327.001 202.995 327.997 209.155C330.715 226.456 330.805 243.304 322.834 250.189C322.532 250.43 322.23 250.672 321.928 250.913C320.751 251.728 319.483 252.272 318.033 252.725C314.954 253.631 312.417 254.084 310.153 253.993C309.881 253.993 309.7 253.993 309.519 253.902C292.399 252.997 299.102 226.637 299.464 221.112C299.645 219.391 299.192 216.854 298.558 214.046C296.747 205.985 302.725 198.285 310.968 198.376Z" fill="white"/>
<path d="M321.929 250.914C322.231 250.672 322.533 250.431 322.835 250.189C326.005 241.222 325.371 231.348 325.371 231.258C325.281 231.077 325.19 230.895 325.009 230.986C324.828 230.986 324.737 231.167 324.737 231.348C324.737 231.439 325.462 241.856 321.929 250.914Z" fill="#500724"/>
<path d="M309.519 253.901C309.7 253.992 309.881 253.992 310.153 253.992C315.226 244.3 314.32 231.346 314.32 231.256C314.32 230.984 314.139 230.894 313.958 230.894C313.867 230.894 313.686 231.075 313.686 231.256C313.686 231.437 314.592 244.39 309.519 253.901Z" fill="#500724"/>
<path d="M249.1 198.014H253.539C259.789 198.104 265.043 202.633 266.039 208.793C268.757 226.094 268.847 242.942 260.876 249.826C260.635 250.068 260.333 250.31 259.97 250.551C258.883 251.366 257.525 252 256.166 252.363C252.995 253.359 250.459 253.721 248.195 253.631C247.923 253.631 247.742 253.631 247.561 253.54C230.531 252.634 237.144 226.275 237.506 220.75C237.687 219.119 237.234 216.492 236.6 213.684C234.789 205.623 240.858 198.014 249.1 198.014Z" fill="white"/>
<path d="M259.971 250.551C260.333 250.309 260.635 250.068 260.877 249.826C264.137 240.949 263.413 230.985 263.413 230.895C263.413 230.714 263.232 230.623 263.05 230.623C262.869 230.623 262.779 230.804 262.779 230.985C262.779 231.076 263.503 241.583 259.971 250.551Z" fill="#500724"/>
<path d="M247.561 253.54C247.742 253.631 247.923 253.631 248.195 253.631C253.268 243.938 252.362 230.985 252.362 230.895C252.362 230.713 252.271 230.532 252 230.532C251.909 230.532 251.728 230.713 251.818 230.895C251.818 231.076 252.634 244.119 247.561 253.54Z" fill="#500724"/>
<path d="M402.909 393.58C402.848 393.701 402.818 393.821 402.818 393.942C402.546 395.029 402.003 396.116 401.097 396.841C399.738 397.928 397.927 397.928 396.296 398.018C385.517 398.2 374.738 398.381 363.959 398.562C355.806 398.652 347.563 398.834 339.411 397.656C339.29 397.656 339.2 397.656 339.139 397.656C336.965 397.294 334.338 396.479 333.976 394.305C333.795 393.399 334.067 392.493 334.429 391.587C334.671 391.044 334.912 390.47 335.154 389.866C337.69 384.159 341.766 379.63 346.748 376.279C345.842 373.38 345.842 369.757 345.842 366.858C345.842 361.605 345.933 356.079 348.379 351.369C349.284 349.648 350.553 348.108 351.821 346.749C354.448 343.941 357.709 341.586 361.422 341.133C366.857 340.499 372.202 344.213 374.376 349.195C376.55 354.177 375.915 360.065 373.47 364.956C372.654 366.587 371.658 368.036 370.571 369.395C376.459 369.485 382.256 370.663 387.6 373.108C387.691 373.199 387.872 373.29 387.963 373.38C388.235 373.471 388.325 373.561 388.597 373.652C391.314 374.92 393.941 376.641 396.206 378.634C396.508 378.875 396.81 379.147 397.112 379.449C397.232 379.57 397.353 379.691 397.474 379.811C397.836 380.113 398.168 380.446 398.47 380.808C401.731 384.431 403.996 388.96 402.909 393.58Z" fill="#FFE6CF"/>
<path d="M353.361 357.8C354.811 354.539 357.256 351.641 360.427 350.101C362.691 349.014 365.59 348.742 367.492 350.373C368.851 351.55 369.304 353.362 369.575 355.174C369.938 358.525 369.394 362.058 367.945 365.228C367.492 366.043 367.039 366.949 366.405 367.583C364.775 369.485 362.148 370.301 359.702 370.754C357.256 371.206 351.731 373.199 350.825 369.848C349.919 366.587 352.003 360.79 353.361 357.8Z" fill="#FEC077"/>
<path d="M339.593 397.294C339.532 397.415 339.472 397.535 339.412 397.656C339.321 397.656 339.23 397.656 339.14 397.656C336.966 397.294 334.339 396.479 333.977 394.305C333.795 393.399 334.067 392.493 334.43 391.587C334.611 391.044 334.882 390.5 335.154 389.866C335.245 389.866 335.245 389.866 335.245 389.866C337.6 390.5 340.498 394.939 339.593 397.294Z" fill="#FEC077"/>
<path d="M400.463 392.222C403.543 395.211 408.253 395.936 412.51 395.573C418.67 395.121 424.558 392.765 430.536 391.226C436.605 389.686 443.217 389.052 448.743 391.86C450.373 392.765 451.913 393.943 453.634 394.758C457.892 396.842 463.236 396.479 467.131 393.852" stroke="#3D3D3D" stroke-width="0.88885" stroke-linecap="round" stroke-linejoin="round"/>
<path d="M349.647 386.423C349.647 387.51 348.832 388.325 347.745 388.325C346.749 388.325 345.843 387.51 345.843 386.423C345.843 385.426 346.749 384.521 347.745 384.521C348.832 384.521 349.647 385.426 349.647 386.423Z" fill="#500724"/>
<path d="M348.56 391.495C352.183 388.959 356.259 386.966 360.607 385.607" stroke="#500724" stroke-width="0.35554" stroke-linecap="round" stroke-linejoin="round"/>
<path d="M350.1 392.038C354.357 391.132 358.615 390.588 362.872 390.407" stroke="#500724" stroke-width="0.35554" stroke-linecap="round" stroke-linejoin="round"/>
<path d="M398.47 380.807C396.477 382.8 394.515 384.823 392.582 386.876C392.401 387.057 392.22 387.239 391.948 387.329C391.676 387.329 391.405 387.239 391.133 387.057C388.778 385.789 386.604 384.249 384.339 382.71C383.886 382.347 383.252 381.894 383.162 381.26C383.071 380.626 383.343 380.083 383.705 379.63C384.701 378.18 386.513 375.191 388.597 373.651C391.314 374.92 393.941 376.641 396.205 378.633C396.507 378.875 396.809 379.147 397.111 379.449C397.232 379.569 397.353 379.69 397.474 379.811C397.836 380.113 398.168 380.445 398.47 380.807Z" fill="#F472B6"/>
<path d="M384.611 376.096C385.245 376.458 386.785 377.364 387.238 377.726" stroke="#3D3D3D" stroke-width="0.444425" stroke-linecap="round" stroke-linejoin="round"/>
<path d="M385.245 375.462C385.788 375.824 387.328 376.73 387.781 377.092" stroke="#3D3D3D" stroke-width="0.444425" stroke-linecap="round" stroke-linejoin="round"/>
<path d="M387.147 386.422C387.419 385.878 388.325 384.248 388.687 383.795" stroke="#3D3D3D" stroke-width="0.444425" stroke-linecap="round" stroke-linejoin="round"/>
<path d="M386.513 385.879C386.785 385.245 387.691 383.705 388.053 383.161" stroke="#3D3D3D" stroke-width="0.444425" stroke-linecap="round" stroke-linejoin="round"/>
<path d="M397.383 384.792C396.839 384.429 395.481 383.252 395.028 382.799" stroke="#3D3D3D" stroke-width="0.444425" stroke-linecap="round" stroke-linejoin="round"/>
<path d="M396.748 385.336C396.205 384.973 394.846 383.796 394.393 383.343" stroke="#3D3D3D" stroke-width="0.444425" stroke-linecap="round" stroke-linejoin="round"/>
</g>
<defs>
<clipPath id="clip0_148_2175">
<rect width="654" height="452.909" fill="white"/>
</clipPath>
</defs>
</svg>
