<svg width="26" height="28" viewBox="0 0 26 28" fill="none" xmlns="http://www.w3.org/2000/svg">
<path d="M2 2H4.66667L5.2 4.66667M5.2 4.66667H19.5279C22.5014 4.66667 24.4354 7.79592 23.1056 10.4555L20.6667 15.3333H7.33333M5.2 4.66667L7.33333 15.3333M7.33333 15.3333L4.27615 18.3905C3.43619 19.2305 4.03108 20.6667 5.21895 20.6667H20.6667M20.6667 20.6667C19.1939 20.6667 18 21.8605 18 23.3333C18 24.8061 19.1939 26 20.6667 26C22.1395 26 23.3333 24.8061 23.3333 23.3333C23.3333 21.8605 22.1395 20.6667 20.6667 20.6667ZM10 23.3333C10 24.8061 8.80609 26 7.33333 26C5.86057 26 4.66667 24.8061 4.66667 23.3333C4.66667 21.8605 5.86057 20.6667 7.33333 20.6667C8.80609 20.6667 10 21.8605 10 23.3333Z" stroke="#4F359B" stroke-width="3" stroke-linecap="round" stroke-linejoin="round"/>
</svg>
