<svg width="26" height="25" viewBox="0 0 26 25" fill="none" xmlns="http://www.w3.org/2000/svg">
<path d="M2 2H3.5724C4.15099 2 4.65584 2.38913 4.80559 2.9473L5.2401 4.57756M5.2401 4.57756C11.5599 4.40045 17.8737 5.103 24 6.66502C23.0652 9.44905 21.9545 12.1537 20.6828 14.763H7.95606M5.2401 4.57756L7.95606 14.763M7.95606 14.763C7.05341 14.763 6.18772 15.1216 5.54945 15.7598C4.91118 16.3981 4.5526 17.2638 4.5526 18.1665H22.4208M6.25433 21.5699C6.25433 21.7956 6.16469 22.012 6.00512 22.1716C5.84555 22.3311 5.62913 22.4208 5.40347 22.4208C5.1778 22.4208 4.96138 22.3311 4.80181 22.1716C4.64224 22.012 4.5526 21.7956 4.5526 21.5699C4.5526 21.3443 4.64224 21.1278 4.80181 20.9683C4.96138 20.8087 5.1778 20.7191 5.40347 20.7191C5.62913 20.7191 5.84555 20.8087 6.00512 20.9683C6.16469 21.1278 6.25433 21.3443 6.25433 21.5699ZM20.7191 21.5699C20.7191 21.7956 20.6294 22.012 20.4698 22.1716C20.3103 22.3311 20.0939 22.4208 19.8682 22.4208C19.6425 22.4208 19.4261 22.3311 19.2665 22.1716C19.107 22.012 19.0173 21.7956 19.0173 21.5699C19.0173 21.3443 19.107 21.1278 19.2665 20.9683C19.4261 20.8087 19.6425 20.7191 19.8682 20.7191C20.0939 20.7191 20.3103 20.8087 20.4698 20.9683C20.6294 21.1278 20.7191 21.3443 20.7191 21.5699Z" stroke="white" stroke-width="2.5" stroke-linecap="round" stroke-linejoin="round"/>
</svg>
