<svg width="24" height="27" viewBox="0 0 24 27" fill="none" xmlns="http://www.w3.org/2000/svg">
<path d="M1.41177 0C0.632075 0 0 0.632075 0 1.41176C0 2.19145 0.632075 2.82353 1.41177 2.82353H3.13302L3.5644 4.54905C3.56893 4.56899 3.57388 4.58879 3.57925 4.60841L5.49534 12.2728L4.23522 13.5329C2.4565 15.3116 3.71626 18.3529 6.23176 18.3529H18.3529C19.1325 18.3529 19.7647 17.7209 19.7647 16.9412C19.7647 16.1615 19.1325 15.5294 18.3529 15.5294H6.23177L7.64352 14.1177H16.9412C17.476 14.1177 17.9647 13.8155 18.2039 13.3372L21.9 5.4058C22.1188 4.96818 22.0321 4.16953 21.6 3.6C21.2013 3.07449 20.5893 2.82353 20.1 2.82353H6.04346L5.60491 1.06936C5.44779 0.440894 4.88311 0 4.2353 0H1.41177Z" fill="#4F359B"/>
<path d="M19.7648 21.8824C19.7648 23.0519 18.8167 24 17.6472 24C16.4776 24 15.5295 23.0519 15.5295 21.8824C15.5295 20.7128 16.4776 19.7647 17.6472 19.7647C18.8167 19.7647 19.7648 20.7128 19.7648 21.8824Z" fill="#4F359B"/>
<path d="M6.35295 24C7.5225 24 8.4706 23.0519 8.4706 21.8824C8.4706 20.7128 7.5225 19.7647 6.35295 19.7647C5.1834 19.7647 4.2353 20.7128 4.2353 21.8824C4.2353 23.0519 5.1834 24 6.35295 24Z" fill="#4F359B"/>
</svg>
