<svg width="28" height="23" viewBox="0 0 28 23" fill="none" xmlns="http://www.w3.org/2000/svg">
<path d="M2.06201 11.9633C1.97933 11.7148 1.97933 11.4462 2.06201 11.1977C3.72382 6.19792 8.44084 2.59155 14.0002 2.59155C19.5571 2.59155 24.2717 6.19432 25.9371 11.1917C26.021 11.4397 26.021 11.7081 25.9371 11.9573C24.2765 16.9571 19.5595 20.5635 14.0002 20.5635C8.44324 20.5635 3.72741 16.9607 2.06201 11.9633Z" stroke="#4F359B" stroke-width="3" stroke-linecap="round" stroke-linejoin="round"/>
<path d="M17.5945 11.5775C17.5945 12.5308 17.2158 13.445 16.5418 14.1191C15.8677 14.7932 14.9534 15.1719 14.0002 15.1719C13.0469 15.1719 12.1326 14.7932 11.4585 14.1191C10.7845 13.445 10.4058 12.5308 10.4058 11.5775C10.4058 10.6242 10.7845 9.70997 11.4585 9.0359C12.1326 8.36182 13.0469 7.98313 14.0002 7.98313C14.9534 7.98313 15.8677 8.36182 16.5418 9.0359C17.2158 9.70997 17.5945 10.6242 17.5945 11.5775Z" stroke="#4F359B" stroke-width="3" stroke-linecap="round" stroke-linejoin="round"/>
</svg>
