<svg width="24" height="25" viewBox="0 0 24 25" fill="none" xmlns="http://www.w3.org/2000/svg">
<path d="M12 3C12 2.20435 11.6839 1.44129 11.1213 0.87868C10.5587 0.31607 9.79565 0 9 0C8.20435 0 7.44129 0.31607 6.87868 0.87868C6.31607 1.44129 6 2.20435 6 3C6 3.79565 6.31607 4.55871 6.87868 5.12132C7.44129 5.68393 8.20435 6 9 6C9.79565 6 10.5587 5.68393 11.1213 5.12132C11.6839 4.55871 12 3.79565 12 3ZM22.875 4.125C23.1734 4.125 23.4595 4.00647 23.6705 3.7955C23.8815 3.58452 24 3.29837 24 3C24 2.70163 23.8815 2.41548 23.6705 2.2045C23.4595 1.99353 23.1734 1.875 22.875 1.875H14.625C14.3266 1.875 14.0405 1.99353 13.8295 2.2045C13.6185 2.41548 13.5 2.70163 13.5 3C13.5 3.29837 13.6185 3.58452 13.8295 3.7955C14.0405 4.00647 14.3266 4.125 14.625 4.125H22.875ZM4.5 3C4.5 3.29837 4.38147 3.58452 4.1705 3.7955C3.95952 4.00647 3.67337 4.125 3.375 4.125H1.125C0.826631 4.125 0.540483 4.00647 0.329505 3.7955C0.118526 3.58452 0 3.29837 0 3C0 2.70163 0.118526 2.41548 0.329505 2.2045C0.540483 1.99353 0.826631 1.875 1.125 1.875H3.375C3.67337 1.875 3.95952 1.99353 4.1705 2.2045C4.38147 2.41548 4.5 2.70163 4.5 3ZM3.375 22.875C3.67337 22.875 3.95952 22.7565 4.1705 22.5455C4.38147 22.3345 4.5 22.0484 4.5 21.75C4.5 21.4516 4.38147 21.1655 4.1705 20.9545C3.95952 20.7435 3.67337 20.625 3.375 20.625H1.125C0.826631 20.625 0.540483 20.7435 0.329505 20.9545C0.118526 21.1655 0 21.4516 0 21.75C0 22.0484 0.118526 22.3345 0.329505 22.5455C0.540483 22.7565 0.826631 22.875 1.125 22.875H3.375ZM22.875 22.875C23.1734 22.875 23.4595 22.7565 23.6705 22.5455C23.8815 22.3345 24 22.0484 24 21.75C24 21.4516 23.8815 21.1655 23.6705 20.9545C23.4595 20.7435 23.1734 20.625 22.875 20.625H14.625C14.3266 20.625 14.0405 20.7435 13.8295 20.9545C13.6185 21.1655 13.5 21.4516 13.5 21.75C13.5 22.0484 13.6185 22.3345 13.8295 22.5455C14.0405 22.7565 14.3266 22.875 14.625 22.875H22.875ZM10.5 12.375C10.5 12.6734 10.3815 12.9595 10.1705 13.1705C9.95952 13.3815 9.67337 13.5 9.375 13.5H1.125C0.826631 13.5 0.540483 13.3815 0.329505 13.1705C0.118526 12.9595 0 12.6734 0 12.375C0 12.0766 0.118526 11.7905 0.329505 11.5795C0.540483 11.3685 0.826631 11.25 1.125 11.25H9.375C9.67337 11.25 9.95952 11.3685 10.1705 11.5795C10.3815 11.7905 10.5 12.0766 10.5 12.375ZM22.875 13.5C23.1734 13.5 23.4595 13.3815 23.6705 13.1705C23.8815 12.9595 24 12.6734 24 12.375C24 12.0766 23.8815 11.7905 23.6705 11.5795C23.4595 11.3685 23.1734 11.25 22.875 11.25H20.625C20.3266 11.25 20.0405 11.3685 19.8295 11.5795C19.6185 11.7905 19.5 12.0766 19.5 12.375C19.5 12.6734 19.6185 12.9595 19.8295 13.1705C20.0405 13.3815 20.3266 13.5 20.625 13.5H22.875ZM18 12.375C18 11.5794 17.6839 10.8163 17.1213 10.2537C16.5587 9.69107 15.7956 9.375 15 9.375C14.2044 9.375 13.4413 9.69107 12.8787 10.2537C12.3161 10.8163 12 11.5794 12 12.375C12 13.1706 12.3161 13.9337 12.8787 14.4963C13.4413 15.0589 14.2044 15.375 15 15.375C15.7956 15.375 16.5587 15.0589 17.1213 14.4963C17.6839 13.9337 18 13.1706 18 12.375ZM12 21.75C12 20.9544 11.6839 20.1913 11.1213 19.6287C10.5587 19.0661 9.79565 18.75 9 18.75C8.20435 18.75 7.44129 19.0661 6.87868 19.6287C6.31607 20.1913 6 20.9544 6 21.75C6 22.5456 6.31607 23.3087 6.87868 23.8713C7.44129 24.4339 8.20435 24.75 9 24.75C9.79565 24.75 10.5587 24.4339 11.1213 23.8713C11.6839 23.3087 12 22.5456 12 21.75Z" fill="#4F359B"/>
</svg>
