<svg width="36" height="36" viewBox="0 0 36 36" fill="none" xmlns="http://www.w3.org/2000/svg">
<rect x="1" y="1" width="34" height="34" rx="17" fill="#F8F8F8"/>
<path d="M18.75 12.75C18.75 12.5511 18.671 12.3603 18.5303 12.2197C18.3897 12.079 18.1989 12 18 12C17.8011 12 17.6103 12.079 17.4697 12.2197C17.329 12.3603 17.25 12.5511 17.25 12.75V17.25H12.75C12.5511 17.25 12.3603 17.329 12.2197 17.4697C12.079 17.6103 12 17.8011 12 18C12 18.1989 12.079 18.3897 12.2197 18.5303C12.3603 18.671 12.5511 18.75 12.75 18.75H17.25V23.25C17.25 23.4489 17.329 23.6397 17.4697 23.7803C17.6103 23.921 17.8011 24 18 24C18.1989 24 18.3897 23.921 18.5303 23.7803C18.671 23.6397 18.75 23.4489 18.75 23.25V18.75H23.25C23.4489 18.75 23.6397 18.671 23.7803 18.5303C23.921 18.3897 24 18.1989 24 18C24 17.8011 23.921 17.6103 23.7803 17.4697C23.6397 17.329 23.4489 17.25 23.25 17.25H18.75V12.75Z" fill="#9972D8"/>
<rect x="1" y="1" width="34" height="34" rx="17" stroke="#9972D8" stroke-width="2"/>
</svg>
