<svg width="28" height="28" viewBox="0 0 28 28" fill="none" xmlns="http://www.w3.org/2000/svg">
<path d="M21.9767 22.9666C21.045 21.7331 19.8397 20.7327 18.4556 20.0444C17.0715 19.356 15.5465 18.9985 14.0007 18.9999C12.4549 18.9985 10.9298 19.356 9.54576 20.0444C8.16167 20.7327 6.95632 21.7331 6.02467 22.9666M21.9767 22.9666C23.7947 21.3495 25.0768 19.2179 25.6556 16.8546C26.2343 14.4913 26.081 12.0079 25.216 9.7337C24.3509 7.45952 22.815 5.50203 20.8119 4.12084C18.8088 2.73964 16.4331 2 14 2C11.5669 2 9.19124 2.73964 7.18814 4.12084C5.18503 5.50203 3.64911 7.45952 2.78405 9.7337C1.91899 12.0079 1.76567 14.4913 2.34443 16.8546C2.92318 19.2179 4.20667 21.3495 6.02467 22.9666M21.9767 22.9666C19.782 24.9242 16.9415 26.0042 14.0007 26C11.0594 26.0045 8.21965 24.9245 6.02467 22.9666M18.0007 10.9997C18.0007 12.0606 17.5792 13.0781 16.8291 13.8282C16.0789 14.5784 15.0615 14.9998 14.0007 14.9998C12.9398 14.9998 11.9224 14.5784 11.1722 13.8282C10.4221 13.0781 10.0007 12.0606 10.0007 10.9997C10.0007 9.93887 10.4221 8.92143 11.1722 8.17128C11.9224 7.42112 12.9398 6.99969 14.0007 6.99969C15.0615 6.99969 16.0789 7.42112 16.8291 8.17128C17.5792 8.92143 18.0007 9.93887 18.0007 10.9997Z" stroke="#4F359B" stroke-width="3" stroke-linecap="round" stroke-linejoin="round"/>
</svg>
