<svg width="28" height="27" viewBox="0 0 28 27" fill="none" xmlns="http://www.w3.org/2000/svg">
<path d="M13.3175 2.88448C13.3729 2.74968 13.4673 2.63437 13.5887 2.55321C13.71 2.47205 13.8529 2.42871 13.999 2.42871C14.1452 2.42871 14.288 2.47205 14.4094 2.55321C14.5307 2.63437 14.6251 2.74968 14.6806 2.88448L17.4657 9.56243C17.5179 9.68738 17.6036 9.79558 17.7134 9.87511C17.8232 9.95464 17.953 10.0024 18.0883 10.0132L25.3205 10.5907C25.9745 10.643 26.2393 11.457 25.7412 11.8816L20.2312 16.5879C20.1283 16.6757 20.0516 16.7901 20.0095 16.9184C19.9674 17.0468 19.9616 17.1842 19.9927 17.3157L21.6769 24.3516C21.7107 24.4928 21.7019 24.6408 21.6514 24.7769C21.6009 24.9131 21.5111 25.0313 21.3933 25.1165C21.2755 25.2018 21.135 25.2504 20.9895 25.2561C20.844 25.2618 20.7001 25.2244 20.5759 25.1487L14.3831 21.3792C14.2674 21.3089 14.1345 21.2717 13.999 21.2717C13.8635 21.2717 13.7307 21.3089 13.615 21.3792L7.42213 25.15C7.29795 25.2257 7.15403 25.2631 7.00856 25.2574C6.86308 25.2517 6.72256 25.2031 6.60475 25.1178C6.48695 25.0326 6.39714 24.9144 6.34666 24.7782C6.29619 24.6421 6.28732 24.4941 6.32117 24.353L8.00537 17.3157C8.0366 17.1842 8.03086 17.0468 7.98878 16.9184C7.94669 16.79 7.86989 16.6756 7.76683 16.5879L2.25681 11.8816C2.14647 11.787 2.06664 11.662 2.02737 11.5223C1.98811 11.3827 1.99115 11.2345 2.03611 11.0965C2.08108 10.9586 2.16596 10.8369 2.28009 10.7469C2.39422 10.6569 2.53249 10.6026 2.67753 10.5907L9.90976 10.0132C10.0451 10.0024 10.1748 9.95464 10.2846 9.87511C10.3945 9.79558 10.4802 9.68738 10.5323 9.56243L13.3175 2.88448Z" stroke="#FFE794" stroke-width="3" stroke-linecap="round" stroke-linejoin="round"/>
</svg>
