<svg width="19" height="25" viewBox="0 0 19 25" fill="none" xmlns="http://www.w3.org/2000/svg">
<path fill-rule="evenodd" clip-rule="evenodd" d="M7.68502 0.75C6.71256 0.75 5.77993 1.13631 5.09229 1.82394C4.40466 2.51158 4.01835 3.44421 4.01835 4.41667V5.00733C2.95835 5.11 1.90635 5.242 0.865018 5.40467C0.73335 5.4226 0.606576 5.4666 0.492107 5.53409C0.377637 5.60159 0.277767 5.69122 0.198333 5.79774C0.118898 5.90427 0.0614922 6.02557 0.0294697 6.15454C-0.00255274 6.2835 -0.00854956 6.41756 0.0118296 6.54887C0.0322088 6.68019 0.0785551 6.80612 0.148161 6.91932C0.217766 7.03251 0.309234 7.1307 0.417221 7.20815C0.525207 7.28559 0.647545 7.34073 0.777086 7.37035C0.906627 7.39998 1.04077 7.40348 1.17168 7.38067L1.37035 7.35133L2.49168 21.3753C2.5651 22.2943 2.98195 23.1518 3.65923 23.7772C4.33651 24.4026 5.2245 24.7499 6.14635 24.75H12.5557C13.4776 24.7503 14.3657 24.4033 15.0432 23.7781C15.7208 23.153 16.1379 22.2956 16.2117 21.3767L17.333 7.35L17.5317 7.38067C17.7913 7.41603 18.0544 7.3481 18.2644 7.19149C18.4745 7.03487 18.6147 6.80208 18.6548 6.54318C18.695 6.28428 18.632 6.01995 18.4793 5.80704C18.3266 5.59413 18.0965 5.44965 17.8384 5.40467C16.7913 5.24171 15.7398 5.10921 14.685 5.00733V4.41667C14.685 3.44421 14.2987 2.51158 13.6111 1.82394C12.9234 1.13631 11.9908 0.75 11.0184 0.75H7.68502ZM9.35168 4.75C10.4717 4.75 11.5824 4.78333 12.685 4.85V4.41667C12.685 3.49667 11.9384 2.75 11.0184 2.75H7.68502C6.76502 2.75 6.01835 3.49667 6.01835 4.41667V4.85C7.12102 4.78333 8.23168 4.75 9.35168 4.75ZM7.45835 9.71C7.44774 9.44478 7.33221 9.19464 7.13717 9.01461C6.94214 8.83457 6.68357 8.73939 6.41835 8.75C6.15314 8.76061 5.903 8.87614 5.72296 9.07118C5.54293 9.26622 5.44774 9.52478 5.45835 9.79L5.85835 19.79C5.8636 19.9213 5.89467 20.0503 5.94978 20.1696C6.00489 20.289 6.08296 20.3962 6.17953 20.4854C6.2761 20.5745 6.38929 20.6438 6.51262 20.6892C6.63596 20.7346 6.76703 20.7553 6.89835 20.75C7.02967 20.7447 7.15867 20.7137 7.27799 20.6586C7.39731 20.6035 7.5046 20.5254 7.59374 20.4288C7.68289 20.3323 7.75214 20.2191 7.79754 20.0957C7.84294 19.9724 7.8636 19.8413 7.85835 19.71L7.45835 9.71ZM13.245 9.79C13.2503 9.65868 13.2296 9.52761 13.1842 9.40427C13.1388 9.28094 13.0696 9.16775 12.9804 9.07118C12.8913 8.97461 12.784 8.89654 12.6647 8.84143C12.5453 8.78632 12.4163 8.75525 12.285 8.75C12.0198 8.73939 11.7612 8.83457 11.5662 9.01461C11.3712 9.19464 11.2556 9.44478 11.245 9.71L10.845 19.71C10.8398 19.8413 10.8604 19.9724 10.9058 20.0957C10.9512 20.2191 11.0205 20.3323 11.1096 20.4288C11.1988 20.5254 11.3061 20.6035 11.4254 20.6586C11.5447 20.7137 11.6737 20.7447 11.805 20.75C11.9363 20.7553 12.0674 20.7346 12.1907 20.6892C12.3141 20.6438 12.4273 20.5745 12.5238 20.4854C12.6204 20.3962 12.6985 20.289 12.7536 20.1696C12.8087 20.0503 12.8398 19.9213 12.845 19.79L13.245 9.79Z" fill="#C33470"/>
</svg>
