<svg width="655" height="364" viewBox="0 0 655 364" fill="none" xmlns="http://www.w3.org/2000/svg">
<g clip-path="url(#clip0_136_1340)">
<path d="M643.875 380.176C658.138 260.229 535.393 183.068 426.462 181.481C397.714 179.965 368.462 181.654 340.308 173.62C246.675 136.107 185.938 45.5853 72.2458 47.313C7.60526 46.0818 -52.3711 78.8814 -70.1342 134.849C-78.217 160.206 -59.5178 211.59 -73.3936 234.43C-132.893 299.831 -226.207 378.406 -162.59 491.926C-136.286 497.252 517.076 629.613 534.63 633.094C553.955 606.008 569.306 584.332 561.706 541.97C556.064 489.999 637.351 479.903 643.875 380.176Z" fill="#E5B6F1"/>
<path d="M584.583 284.032C584.583 302.995 468.144 318.388 324.486 318.388C180.827 318.388 64.3887 302.995 64.3887 284.032C64.3887 265.023 180.827 249.676 324.486 249.676C468.144 249.676 584.583 265.023 584.583 284.032Z" fill="#FFEAD6"/>
<g style="mix-blend-mode:multiply" opacity="0.7">
<path d="M501.3 284.032C501.3 292.563 422.144 299.471 324.486 299.471C226.828 299.471 147.672 292.563 147.672 284.032C147.672 275.501 226.828 268.546 324.486 268.546C422.144 268.546 501.3 275.501 501.3 284.032Z" fill="#E5B6F1"/>
</g>
<path d="M492.953 240.771C492.829 241.142 492.613 241.498 492.304 241.838C488.733 246.289 476.352 249.302 473.755 251.482C463.6 260.013 456.413 268.683 443.707 274.108C435.916 277.446 421.541 278.79 404.384 279.161C387.226 279.532 367.333 278.929 348.506 278.466C323.79 277.863 300.929 277.446 288.502 279.625C278.486 281.387 265.27 282.407 251.405 282.731C233.876 283.149 215.281 282.453 200.674 280.83C190.473 279.625 182.265 278.002 177.628 275.962C169.003 272.114 160.702 267.709 152.031 264.046C144.009 260.708 136.079 261.914 127.825 259.549C126.295 259.132 124.533 258.344 124.208 256.767C124.177 256.489 124.177 256.211 124.208 255.933C124.208 255.886 124.208 255.793 124.254 255.701C124.301 255.469 124.347 255.237 124.44 255.005C124.564 254.665 124.718 254.341 124.904 254.032C128.428 247.772 135.43 244.156 142.525 245.593C155.416 248.236 168.354 244.527 185.001 235.3C186.902 234.234 188.711 233.26 190.565 232.286C193.348 230.849 196.13 229.551 199.098 228.485C209.068 224.729 220.707 223.199 239.997 225.749C244.078 226.275 248.545 227.001 253.399 227.928C272.689 231.591 287.899 235.3 300.837 237.572C313.821 239.937 324.486 240.864 334.688 239.009C340.067 238.036 346.373 236.135 353.236 233.956C369.605 228.855 389.128 222.318 407.212 223.153C410.18 223.292 413.148 223.616 416.023 224.219C418.203 224.636 420.289 225.1 422.376 225.517C436.287 228.438 447.231 231.22 456.644 232.704C463.415 233.77 469.443 234.187 475.147 233.446C479.366 232.936 487.064 232.657 490.588 235.393C493.185 237.387 493.695 239.148 492.953 240.771Z" fill="#2F2695" fill-opacity="0.95"/>
<path d="M492.953 240.771C492.829 241.142 492.613 241.498 492.304 241.838C484.142 243.507 473.755 245.547 461.838 247.68C461.529 247.742 461.219 247.803 460.91 247.865C460.106 248.02 459.256 248.174 458.36 248.329C458.082 248.36 457.788 248.406 457.479 248.468C440.275 251.528 420.243 254.727 399.236 257.37C398.912 257.416 398.634 257.463 398.309 257.509C397.629 257.602 396.949 257.679 396.269 257.741C395.944 257.787 395.619 257.834 395.341 257.88C371.692 260.801 346.929 262.98 323.605 263.49C317.066 263.629 310.25 263.676 303.387 263.676H300.929C300.651 263.676 300.326 263.676 300.002 263.676C299.306 263.676 298.518 263.676 297.776 263.676H296.848C257.479 263.444 214.586 261.265 180.827 259.271C180.611 259.24 180.394 259.225 180.178 259.225C179.189 259.163 178.215 259.101 177.257 259.039C177.025 259.039 176.839 259.039 176.607 258.993C169.049 258.529 162 258.112 155.601 257.695C142.2 256.86 130.653 256.165 124.208 255.933C124.208 255.886 124.208 255.794 124.254 255.701C124.301 255.469 124.347 255.237 124.44 255.005C129.772 255.237 139.278 255.794 155.694 256.767C162.093 257.185 169.188 257.602 176.747 258.066C176.963 258.096 177.179 258.112 177.396 258.112C178.354 258.174 179.328 258.236 180.317 258.297C180.503 258.297 180.734 258.344 180.92 258.344C214.678 260.337 257.479 262.517 296.802 262.748H297.729C298.471 262.748 299.26 262.748 300.002 262.748C300.28 262.748 300.604 262.748 300.929 262.748C308.673 262.795 316.232 262.702 323.605 262.563C346.79 262.053 371.506 259.874 395.063 256.953C395.403 256.922 395.712 256.891 395.99 256.86C396.701 256.767 397.382 256.675 398.031 256.582C398.371 256.551 398.68 256.52 398.958 256.489C419.964 253.846 439.997 250.647 457.154 247.587C457.479 247.541 457.757 247.494 458.082 247.448C458.916 247.293 459.751 247.139 460.586 246.984C460.91 246.938 461.235 246.845 461.559 246.799C473.894 244.573 484.652 242.487 492.953 240.771Z" fill="#250A58"/>
<path d="M176.793 262.238C176.607 262.238 176.468 262.099 176.468 261.914C176.376 259.781 176.7 257.602 177.442 255.562C177.535 255.423 177.72 255.33 177.859 255.376C178.045 255.469 178.138 255.655 178.045 255.794C177.349 257.741 177.025 259.827 177.118 261.914C177.118 262.099 176.978 262.238 176.793 262.238Z" fill="#250A58"/>
<path d="M180.642 263.212C180.457 263.212 180.317 263.119 180.317 262.98C179.9 260.522 180.132 258.019 181.013 255.7C181.059 255.561 181.245 255.469 181.43 255.515C181.569 255.608 181.662 255.793 181.616 255.932C180.781 258.158 180.549 260.522 180.92 262.841C180.967 263.026 180.874 263.212 180.688 263.212C180.657 263.212 180.642 263.212 180.642 263.212Z" fill="#250A58"/>
<path d="M297.405 266.135C297.374 266.135 297.358 266.135 297.358 266.135C297.126 266.135 296.895 265.949 296.941 265.671C296.941 263.909 296.802 262.101 296.431 260.339C296.385 260.107 296.524 259.876 296.802 259.829C297.034 259.783 297.312 259.922 297.358 260.154C297.729 262.008 297.868 263.863 297.868 265.718C297.822 265.949 297.637 266.135 297.405 266.135Z" fill="#250A58"/>
<path d="M300.419 266.644C300.419 266.644 300.419 266.629 300.419 266.598C300.14 266.598 299.955 266.366 299.955 266.134C300.094 264.187 300.048 262.24 299.816 260.339C299.769 260.06 299.955 259.829 300.187 259.782C300.465 259.782 300.697 259.968 300.697 260.2C300.975 262.193 301.021 264.187 300.882 266.181C300.882 266.412 300.65 266.644 300.419 266.644Z" fill="#250A58"/>
<path d="M396.222 262.376C395.944 262.376 395.758 262.145 395.758 261.913C395.805 259.548 395.341 257.184 394.414 255.004C394.275 254.773 394.414 254.494 394.646 254.402C394.877 254.309 395.156 254.402 395.248 254.634C396.222 256.905 396.732 259.456 396.686 261.913C396.686 262.191 396.5 262.376 396.222 262.376Z" fill="#250A58"/>
<path d="M399.793 261.172C399.607 261.172 399.422 261.079 399.375 260.847L397.474 254.727C397.381 254.495 397.52 254.217 397.752 254.171C398.031 254.078 398.262 254.217 398.355 254.449L400.256 260.569C400.303 260.847 400.164 261.079 399.932 261.172C399.901 261.172 399.855 261.172 399.793 261.172Z" fill="#250A58"/>
<path d="M458.499 250.553C458.314 250.553 458.175 250.461 458.082 250.275L456.413 245.546C456.366 245.314 456.459 245.036 456.737 244.943C456.969 244.85 457.201 244.989 457.294 245.221L458.963 249.95C459.056 250.182 458.917 250.461 458.685 250.553C458.623 250.553 458.561 250.553 458.499 250.553Z" fill="#250A58"/>
<path d="M461.606 249.626C461.328 249.626 461.143 249.44 461.143 249.208C461.096 247.817 460.54 246.473 459.566 245.499C459.427 245.314 459.427 245.035 459.612 244.85C459.798 244.665 460.076 244.665 460.262 244.85C461.328 246.009 462.024 247.586 462.07 249.162C462.07 249.394 461.884 249.626 461.606 249.626Z" fill="#250A58"/>
<path d="M240.786 232.008C239.812 236.645 235.638 239.798 231.465 241.977C229.981 242.765 228.451 243.414 226.874 244.063C221.866 246.057 216.533 247.309 211.108 247.68C207.259 247.958 203.225 247.819 199.561 246.428C195.945 245.083 192.606 242.394 191.215 238.731C190.334 236.506 190.194 234.327 190.565 232.287C193.348 230.849 196.13 229.551 199.098 228.485C209.068 224.729 220.707 223.199 239.997 225.749C240.878 227.697 241.249 229.876 240.786 232.008Z" fill="white"/>
<path d="M251.405 282.732C233.876 283.149 215.281 282.454 200.674 280.831C206.471 275.36 218.435 272.532 223.675 272.068C230.816 271.465 238.05 272.346 244.913 274.294C247.046 274.896 249.225 275.638 250.524 277.446C251.59 278.93 251.776 280.924 251.405 282.732Z" fill="white"/>
<path d="M358.754 240.817C358.708 241.976 358.244 242.996 357.502 243.831C356.389 245.129 354.627 246.103 353.004 246.845C338.536 253.15 321.935 254.495 306.772 250.229C305.937 249.997 305.056 249.719 304.222 249.441C300.836 248.328 296.988 246.01 297.312 242.533C297.498 240.817 298.75 239.38 300.048 238.221C300.295 237.973 300.558 237.757 300.836 237.572C313.82 239.936 324.486 240.863 334.687 239.009C340.067 238.035 346.373 236.134 353.236 233.955C354.071 234.465 354.905 235.021 355.647 235.671C357.27 236.969 358.801 238.731 358.754 240.817Z" fill="white"/>
<path d="M404.384 279.161C387.226 279.532 367.333 278.93 348.506 278.466C349.295 278.002 350.037 277.631 350.639 277.307C360.099 272.16 370.95 269.703 381.662 270.167C387.644 270.398 393.626 271.558 399.237 273.69C400.952 274.339 402.761 275.174 403.735 276.75C404.152 277.446 404.384 278.28 404.384 279.161Z" fill="white"/>
<path d="M456.83 233.91C456.876 235.44 455.763 236.785 454.418 237.526C453.074 238.268 451.497 238.454 450.013 238.639C438.559 240.03 426.688 240.216 415.884 236.182C412.916 235.115 409.902 233.539 408.047 230.943C406.424 228.717 405.96 225.518 407.212 223.153C410.18 223.292 413.148 223.617 416.023 224.22C432.995 227.604 445.84 230.989 456.644 232.704C456.737 233.122 456.83 233.493 456.83 233.91Z" fill="white"/>
<g style="mix-blend-mode:multiply" opacity="0.5">
<path d="M422.376 225.517C421.727 227.279 420.475 228.902 418.852 230.2C414.493 233.538 408.279 234.883 402.297 236.088C387.505 239.009 372.527 241.559 357.502 243.831C340.716 246.381 323.79 248.514 306.772 250.23C305.566 250.353 304.345 250.477 303.109 250.601C291.516 251.713 279.83 252.687 268.145 252.038C255.717 251.342 243.614 248.885 232.021 245.5C230.491 245.037 228.729 244.573 226.874 244.063C217.739 241.559 205.775 238.128 201.323 232.518C200.118 231.035 199.422 229.69 199.098 228.485C209.068 224.729 220.707 223.199 239.997 225.749C244.078 226.275 248.545 227.001 253.399 227.928C272.689 231.591 287.899 235.3 300.836 237.572C313.82 239.937 324.486 240.864 334.688 239.009C340.067 238.036 346.373 236.135 353.236 233.956C369.605 228.855 389.128 222.318 407.212 223.153C410.18 223.292 413.148 223.616 416.023 224.219C418.202 224.636 420.289 225.1 422.376 225.517Z" fill="#250A58"/>
</g>
<path d="M452.981 154.071C434.479 209.477 417.646 215.458 417.646 215.458L425.251 183.606C425.251 183.606 441.063 150.362 430.213 119.019C429.378 116.516 428.311 114.012 427.106 111.555C410.458 78.3111 386.438 70.8927 403.085 54.2941C415.142 42.1929 445.654 70.9391 454.465 108.819C457.804 123.146 458.035 138.817 452.981 154.071Z" fill="white"/>
<path d="M454.465 108.819C452.795 108.773 451.033 108.495 449.41 108.17C445.005 107.289 439.811 106.64 436.658 109.839C435.082 111.416 434.432 113.595 433.366 115.588C432.67 116.933 431.557 118.324 430.213 119.019C429.378 116.516 428.311 114.012 427.106 111.555C410.458 78.3111 386.438 70.8927 403.085 54.2941C415.142 42.1929 445.654 70.9391 454.465 108.819Z" fill="#9972D8"/>
<path d="M386.113 119.021C386.113 120.195 386.067 121.37 385.974 122.545C385.881 124.167 385.742 125.744 385.511 127.32C385.047 130.566 384.305 133.765 383.331 136.825C383.331 136.856 383.331 136.871 383.331 136.871C383.006 137.845 382.682 138.772 382.311 139.746C381.059 142.991 379.529 146.098 377.767 149.019C377.349 149.807 376.839 150.503 376.375 151.244C374.613 153.872 372.666 156.329 370.533 158.616C370.038 159.173 369.512 159.698 368.956 160.193C366.684 162.511 364.18 164.597 361.49 166.498C360.934 166.869 360.393 167.24 359.867 167.611C358.074 168.786 356.219 169.852 354.303 170.81C353.746 171.135 353.143 171.413 352.54 171.691C349.635 173.051 346.589 174.164 343.405 175.03C342.802 175.215 342.2 175.4 341.597 175.493C339.51 176.003 337.377 176.374 335.198 176.652C334.61 176.745 334.007 176.822 333.389 176.884C331.627 177.023 329.819 177.116 327.964 177.116C327.067 177.116 326.171 177.101 325.274 177.07C324.671 177.023 324.022 176.977 323.373 176.93C320.127 176.699 316.974 176.142 313.867 175.4C313.218 175.215 312.568 175.03 311.873 174.844C309.678 174.195 307.545 173.438 305.474 172.572H305.427C304.778 172.294 304.082 172.016 303.387 171.645C300.187 170.161 297.127 168.353 294.252 166.313C293.541 165.818 292.845 165.293 292.165 164.737C288.131 161.584 284.514 157.921 281.453 153.794V153.748C281.407 153.748 281.407 153.748 281.453 153.702H281.407C280.758 152.821 280.108 151.94 279.459 151.013C276.723 146.886 274.544 142.342 272.874 137.567C272.596 136.732 272.364 135.851 272.086 134.97C271.344 132.312 270.788 129.577 270.417 126.764C270.262 125.836 270.154 124.894 270.092 123.936C269.953 122.313 269.86 120.69 269.86 119.021C269.86 116.424 270.03 113.874 270.37 111.371C270.51 110.304 270.695 109.192 270.927 108.079C271.545 104.833 272.426 101.68 273.57 98.6204C274.127 97.0749 274.76 95.5757 275.471 94.123C277.512 89.8111 280.062 85.7773 283.076 82.1609C284.792 80.0744 286.647 78.1271 288.594 76.3189H288.641C296.292 69.2251 305.891 64.1713 316.51 62.0385H316.556C319.091 61.544 321.688 61.204 324.347 61.0185H324.393C325.599 60.9722 326.758 60.9258 327.964 60.9258C328.798 60.9258 329.633 60.9412 330.468 60.9721C331.89 61.034 333.312 61.1422 334.734 61.2967C336.712 61.544 338.675 61.884 340.623 62.3167C341.643 62.5331 342.648 62.7804 343.637 63.0586C345.152 63.4913 346.62 63.9704 348.042 64.4959C348.924 64.8204 349.805 65.145 350.639 65.5159C353.885 66.8605 356.946 68.5296 359.867 70.4306C360.053 70.5697 360.192 70.6624 360.377 70.8015L361.444 71.497C361.537 71.5897 361.676 71.6824 361.768 71.7288C376.515 82.2536 386.113 99.5013 386.113 119.021Z" fill="#FFE794"/>
<path d="M361.768 71.7279C361.706 71.7279 361.66 71.7434 361.629 71.7743C361.011 71.9906 360.408 72.207 359.821 72.4234C358.476 72.9334 357.131 73.4434 355.786 73.9534C355.199 74.1698 354.627 74.3861 354.071 74.6025C352.911 75.0662 351.798 75.5298 350.685 75.9471C350.083 76.1789 349.526 76.4107 348.97 76.6889C347.177 77.3999 345.399 78.1417 343.637 78.9145C343.08 79.1463 342.478 79.4245 341.921 79.6563C339.355 80.7999 336.805 81.99 334.27 83.2264C333.713 83.4737 333.157 83.7364 332.601 84.0146C330.792 84.8955 328.937 85.8692 327.175 86.7965C326.588 87.1056 326.031 87.4147 325.506 87.7238C324.64 88.1874 323.775 88.6665 322.909 89.1611C321.858 89.7483 320.822 90.3511 319.802 90.9693C319.246 91.2784 318.72 91.6029 318.225 91.9429C318.133 91.9893 318.04 92.0357 317.947 92.0821C317.298 92.4839 316.664 92.8703 316.046 93.2412C314.052 94.493 312.104 95.7912 310.203 97.1358C309.523 97.5686 308.858 98.0322 308.209 98.5268C307.004 99.3613 305.829 100.227 304.685 101.123C303.943 101.68 303.232 102.236 302.552 102.792C300.836 104.137 299.167 105.528 297.59 106.919C296.756 107.63 295.936 108.356 295.133 109.098C293.061 111.014 291.083 112.962 289.197 114.94V114.986C287.806 116.377 286.507 117.815 285.255 119.252V119.298C282.334 122.683 279.644 126.207 277.28 129.823C275.796 132.002 274.173 134.645 272.874 137.566C272.596 136.731 272.364 135.85 272.086 134.969C273.245 132.698 274.544 130.611 275.703 128.803C282.659 118.278 291.794 108.681 302.969 100.103C303 100.072 303.031 100.041 303.062 100.01C307.143 96.904 311.502 93.8903 316.139 91.0157C318.055 89.8411 320.018 88.682 322.028 87.5383C334.177 80.6763 347.022 75.1589 359.867 70.4297C360.052 70.5688 360.192 70.6615 360.377 70.8006L360.702 70.5688C360.949 70.8779 361.196 71.187 361.444 71.4961C361.536 71.5888 361.675 71.6815 361.768 71.7279Z" fill="#FEC077"/>
<path d="M350.639 65.5151C325.645 75.5299 302.506 90.9694 283.957 110.257C278.3 116.099 273.894 121.477 270.417 126.763C270.262 125.836 270.154 124.893 270.092 123.935C273.431 119.113 277.511 114.245 282.612 108.959C301.207 89.7176 323.512 74.6026 348.042 64.4951C348.923 64.8197 349.804 65.1442 350.639 65.5151Z" fill="#FEC077"/>
<path d="M343.637 63.0582C312.429 75.7622 288.316 91.7117 270.37 111.37C270.509 110.304 270.695 109.191 270.927 108.078C288.362 89.6253 311.363 74.5103 340.623 62.3164C341.643 62.5328 342.648 62.7801 343.637 63.0582Z" fill="#FEC077"/>
<path d="M334.734 61.2962C313.635 69.3173 290.959 80.6767 273.57 98.6199C274.126 97.0744 274.76 95.5753 275.471 94.1225C291.608 78.7758 311.502 68.4828 330.467 60.9717C331.89 61.0335 333.312 61.1417 334.734 61.2962Z" fill="#FEC077"/>
<path d="M324.346 61.0176C309.693 66.2568 295.874 73.3043 283.076 82.1599C284.791 80.0735 286.646 78.1262 288.594 76.318H288.64C297.497 70.7542 306.818 65.9786 316.509 62.0376H316.556L324.346 61.0176Z" fill="#FEC077"/>
<path d="M343.405 175.029C342.802 175.214 342.2 175.4 341.597 175.493C341.365 152.542 336.264 129.545 326.851 108.542C326.155 107.012 325.413 105.435 324.671 103.859C322.662 99.7789 320.513 95.807 318.226 91.9432C318.133 91.8042 318.086 91.7114 318.04 91.6187L319.617 90.6914C319.663 90.7841 319.709 90.8769 319.802 90.9696C334.826 116.192 343.034 145.634 343.405 175.029Z" fill="#FEC077"/>
<path d="M354.302 170.81C353.746 171.134 353.143 171.413 352.54 171.691C349.202 142.342 339.927 113.457 325.506 87.7241C325.475 87.6623 325.459 87.6159 325.459 87.585L327.082 86.7041C327.082 86.7041 327.129 86.7968 327.175 86.7968C341.55 112.576 350.871 141.461 354.302 170.81Z" fill="#FEC077"/>
<path d="M361.49 166.499C360.934 166.87 360.393 167.241 359.867 167.612C354.256 138.819 347.486 109.702 332.601 84.016C332.508 83.8769 332.415 83.7378 332.369 83.5987L333.946 82.7178C334.038 82.8569 334.177 83.0423 334.27 83.2278C349.155 108.914 355.926 137.846 361.49 166.499Z" fill="#FEC077"/>
<path d="M370.532 158.616C370.038 159.173 369.512 159.698 368.956 160.193C363.206 134.321 355.323 105.575 341.921 79.6572C341.875 79.5644 341.829 79.4254 341.782 79.3326L343.452 78.498C343.498 78.6371 343.591 78.7762 343.637 78.9153C356.899 104.555 364.782 132.977 370.532 158.616Z" fill="#FEC077"/>
<path d="M377.767 149.018C377.349 149.806 376.839 150.502 376.375 151.244C370.95 125.14 361.768 100.103 348.97 76.689C348.754 76.2871 348.537 75.9008 348.321 75.5298L349.944 74.6025C350.191 75.0662 350.438 75.5144 350.686 75.9471C363.206 98.9441 372.341 123.471 377.767 149.018Z" fill="#FEC077"/>
<path d="M383.331 136.824V136.87C383.006 137.844 382.682 138.771 382.311 139.745C375.448 117.073 365.988 95.2347 354.07 74.6024C353.931 74.4169 353.839 74.2778 353.746 74.0923L355.322 73.165C355.462 73.3969 355.647 73.6751 355.786 73.9532C367.286 93.8901 376.514 114.94 383.331 136.824Z" fill="#FEC077"/>
<path d="M385.974 122.544C385.882 124.167 385.742 125.743 385.511 127.32C379.853 108.171 372.573 88.4198 359.821 72.4239C359.635 72.1921 359.45 71.9603 359.264 71.7285L360.377 70.8012L360.702 70.5693C360.949 70.8784 361.197 71.1875 361.444 71.4966C361.506 71.5894 361.568 71.6821 361.629 71.7748C373.408 86.7043 380.549 104.74 385.974 122.544Z" fill="#FEC077"/>
<path d="M289.243 114.847C289.197 114.847 289.197 114.94 289.197 114.94C289.151 114.986 289.151 114.986 289.151 114.986C283.401 127.041 280.804 140.07 281.407 153.701C280.757 152.82 280.108 151.939 279.459 151.012C279.32 139.977 281.268 129.359 285.256 119.298C285.256 119.298 285.256 119.298 285.256 119.252C285.997 117.49 286.739 115.728 287.574 114.013L289.243 114.847Z" fill="#FEC077"/>
<path d="M297.59 106.919C292.443 126.531 291.33 146.468 294.252 166.312C293.541 165.817 292.845 165.292 292.165 164.735C289.661 146.143 290.635 127.458 295.133 109.098C295.365 108.124 295.643 107.15 295.875 106.177L297.637 106.64C297.637 106.733 297.59 106.826 297.59 106.919Z" fill="#FEC077"/>
<path d="M305.427 172.573C304.778 172.294 304.082 172.016 303.387 171.645C299.213 149.019 298.889 125.466 302.552 102.794C302.676 101.897 302.815 101.001 302.969 100.104C302.969 100.058 303.016 100.058 303.016 100.012H303.062L304.824 100.336C304.778 100.614 304.731 100.846 304.685 101.124C300.651 124.631 300.929 149.112 305.427 172.573Z" fill="#FEC077"/>
<path d="M313.867 175.4C313.217 175.214 312.568 175.029 311.873 174.843C306.354 149.806 305.102 124.213 308.209 98.5268C308.256 97.8314 308.348 97.1823 308.441 96.4404L310.296 96.6723C310.265 96.8268 310.234 96.9814 310.203 97.1359C306.911 123.471 308.117 149.714 313.867 175.4Z" fill="#FEC077"/>
<path d="M325.274 177.069C324.671 177.022 324.022 176.976 323.373 176.93C317.623 149.435 315.165 121.385 316.046 93.2411C316.046 92.4993 316.077 91.7575 316.139 91.0156L317.947 91.062C317.947 91.402 317.947 91.742 317.947 92.082C316.974 120.643 319.431 149.157 325.274 177.069Z" fill="#FEC077"/>
<path d="M335.197 176.651C334.61 176.744 334.007 176.821 333.389 176.883C329.633 152.264 326.294 128.108 324.671 103.859C324.625 103.812 324.625 103.72 324.625 103.673L326.48 103.534C326.619 105.203 326.711 106.919 326.851 108.542C328.566 131.168 331.72 153.747 335.197 176.651Z" fill="#FEC077"/>
<path d="M429.888 203.867C424.787 211.795 418.481 218.194 410.876 223.248C393.718 234.746 370.069 239.568 339.325 240.866C297.59 242.582 265.733 231.269 237.493 219.121C235.7 218.379 233.907 217.607 232.114 216.803C208.233 206.371 200.071 192.322 196.779 182.447C196.733 182.215 196.64 181.937 196.547 181.705C195.898 179.618 195.481 177.764 195.156 176.187C193.301 166.914 185.928 146.607 182.218 133.671C178.555 120.735 182.218 113.363 182.218 113.363C187.783 107.799 208.094 122.59 211.803 122.59C212.499 122.59 213.195 122.451 213.89 122.219C216.023 121.57 217.924 120.04 218.713 119.298C219.037 119.066 219.176 118.88 219.176 118.88C219.176 118.88 219.176 118.88 219.176 118.834C215.513 96.718 226.596 81.9277 230.306 81.9277C233.969 81.9277 248.761 109.654 248.761 109.654C248.761 109.654 249.503 110.071 250.709 110.813C253.723 112.621 259.751 116.377 265.594 121.199C268.794 123.841 271.993 126.855 274.637 129.962C274.868 130.286 275.1 130.564 275.332 130.843C277.187 133.254 278.254 135.618 278.81 137.751C279.459 140.347 279.366 142.666 278.949 144.567C279.969 142.48 281.36 139.837 283.169 136.731C283.354 136.36 283.633 135.943 283.865 135.525C285.117 133.439 287.296 130.472 289.986 127.133C290.31 126.716 290.635 126.345 290.959 125.974C300.373 114.522 315.304 99.9636 320.822 104.09C328.242 109.654 318.968 133.671 315.304 144.752C314.562 146.978 314.099 149.388 313.867 151.892C312.939 161.814 315.304 172.478 315.304 172.478C315.304 172.478 315.304 172.478 328.242 174.333C338.907 175.863 347.115 171.041 349.619 169.372C349.557 168.723 349.495 167.981 349.434 167.146C349.202 164.225 348.924 160.006 348.553 153.979C347.069 128.663 370.764 122.59 380.039 121.152C382.265 120.828 383.656 120.735 383.656 120.735C383.656 120.735 379.992 76.4103 385.511 72.7011C391.075 68.9919 411.386 107.799 411.386 107.799C411.386 107.799 446.489 178.042 429.888 203.867Z" fill="white"/>
<path d="M314.377 144.753C313.635 146.979 313.171 149.39 312.94 151.894C309.694 150.966 306.679 149.112 303.897 147.164C299.863 144.29 296.014 140.998 293.139 136.964C291.099 133.997 289.568 130.612 289.058 127.135C298.425 115.544 314.192 99.8259 319.895 104.091C327.315 109.655 318.04 133.672 314.377 144.753Z" fill="#9972D8"/>
<path d="M381.013 130.798C379.019 135.945 372.851 137.985 369.188 142.158C366.22 145.542 365.107 150.086 363.855 154.444C362.325 159.544 360.006 165.479 354.349 167.055C352.077 167.751 350.129 167.705 348.506 167.148C348.274 164.227 347.996 160.008 347.625 153.981C346.141 128.665 369.837 122.592 379.111 121.154C381.291 123.797 382.265 127.599 381.013 130.798Z" fill="#9972D8"/>
<path d="M409.948 223.248C392.791 234.747 369.142 239.569 338.397 240.867C296.663 242.582 264.806 231.269 236.566 219.122C240.832 217.128 246.953 217.082 252.703 217.36C265.594 217.916 278.532 219.029 290.96 222.414C298.564 224.5 305.937 227.421 313.589 229.276C335.986 234.7 359.589 230.898 381.801 224.732C390.287 222.321 399.329 219.585 407.769 222.182C408.557 222.46 409.346 222.738 409.948 223.248Z" fill="#9972D8"/>
<path d="M217.646 145.401C217.09 148.554 215.977 151.521 214.818 154.535C212.499 160.748 210.134 167.007 207.816 173.22C207.12 175.028 206.425 176.929 205.126 178.413C202.761 181.241 199.144 182.122 195.62 181.705C194.971 179.618 194.553 177.764 194.229 176.187C192.42 166.914 185.001 146.606 181.291 133.671C177.628 120.735 181.291 113.363 181.291 113.363C186.856 107.799 207.166 122.589 210.876 122.589C211.572 122.589 212.267 122.45 212.963 122.218C213.334 122.899 213.674 123.579 213.983 124.259C217.183 130.796 218.945 138.214 217.646 145.401Z" fill="#9972D8"/>
<path d="M245.516 109.745C242.548 109.745 239.58 109.884 236.659 110.209C234.85 106.5 233.366 102.605 232.207 98.6641C231.79 97.134 229.703 89.252 231.511 87.3047C236.195 92.4048 245.469 109.745 245.469 109.745C245.469 109.745 245.485 109.745 245.516 109.745Z" fill="#F472B6"/>
<path d="M186.717 121.011C187.412 130.237 194.553 137.517 198.31 145.955C201.308 140.051 204.091 134.039 206.656 127.919C206.564 128.151 195.249 121.196 194.229 120.501C191.308 118.414 186.16 114.241 186.717 121.011Z" fill="#F472B6"/>
<path d="M231.789 196.263C231.789 196.263 250.662 196.263 262.302 177.717C273.941 159.171 278.624 137.704 291.423 124.814" stroke="#2E0846" stroke-width="0.58946" stroke-linecap="round" stroke-linejoin="round"/>
<path d="M312.475 151.149C312.475 151.149 311.687 158.197 313.032 163.251C314.377 168.258 315.768 173.126 314.701 182.121C313.588 191.07 308.859 195.799 307.746 200.992" stroke="#2E0846" stroke-width="0.58946" stroke-linecap="round" stroke-linejoin="round"/>
<path d="M348.831 165.662C348.831 165.662 347.532 180.87 360.748 190.931C373.964 200.992 378.833 200.992 378.833 200.992" stroke="#2E0846" stroke-width="0.58946" stroke-linecap="round" stroke-linejoin="round"/>
<path d="M373.64 123.145C373.64 123.145 379.251 119.622 390.101 122.218" stroke="#2E0846" stroke-width="0.58946" stroke-linecap="round" stroke-linejoin="round"/>
<path d="M430.074 116.839C429.424 115.402 436.148 131.722 433.551 151.891C431.001 171.874 425.947 185.552 425.947 185.552" stroke="#2E0846" stroke-width="0.58946" stroke-linecap="round" stroke-linejoin="round"/>
<path d="M212.963 122.218C212.963 122.218 215.142 120.642 218.898 118.092C222.654 115.588 227.291 113.27 231.789 111.322" stroke="#2E0846" stroke-width="0.58946" stroke-linecap="round" stroke-linejoin="round"/>
<path d="M417.785 147.627C417.971 146.561 417.924 145.495 417.693 144.475" stroke="#500724" stroke-width="0.58946" stroke-linecap="round" stroke-linejoin="round"/>
<path d="M418.342 140.07C419.084 141.044 419.455 142.296 419.408 143.548" stroke="#500724" stroke-width="0.58946" stroke-linecap="round" stroke-linejoin="round"/>
<path d="M420.058 145.866C420.119 147.319 420.073 148.772 419.918 150.225" stroke="#500724" stroke-width="0.58946" stroke-linecap="round" stroke-linejoin="round"/>
<path d="M208.558 195.893C209.068 196.82 209.764 197.608 210.645 198.257" stroke="#500724" stroke-width="0.58946" stroke-linecap="round" stroke-linejoin="round"/>
<path d="M212.963 202.059C211.757 201.735 210.645 201.039 209.856 200.065" stroke="#500724" stroke-width="0.58946" stroke-linecap="round" stroke-linejoin="round"/>
<path d="M207.909 198.674C206.919 197.592 206.023 196.449 205.219 195.243" stroke="#500724" stroke-width="0.58946" stroke-linecap="round" stroke-linejoin="round"/>
<path d="M304.175 193.946C304.824 193.343 305.381 192.648 305.752 191.859" stroke="#1E1A19" stroke-width="0.58946" stroke-linecap="round" stroke-linejoin="round"/>
<path d="M308.395 189.355C308.349 190.375 307.978 191.396 307.329 192.137" stroke="#1E1A19" stroke-width="0.58946" stroke-linecap="round" stroke-linejoin="round"/>
<path d="M306.54 193.945C305.86 194.934 305.103 195.862 304.268 196.727" stroke="#1E1A19" stroke-width="0.58946" stroke-linecap="round" stroke-linejoin="round"/>
<path d="M239.905 148.599C239.905 150.639 238.282 152.308 236.241 152.308C234.201 152.308 232.531 150.639 232.531 148.599C232.531 146.559 234.201 144.89 236.241 144.89C238.282 144.89 239.905 146.559 239.905 148.599Z" fill="#500724"/>
<path d="M259.566 125.835C259.566 127.457 258.268 128.802 256.598 128.802C254.975 128.802 253.631 127.457 253.631 125.835C253.631 124.165 254.975 122.867 256.598 122.867C258.268 122.867 259.566 124.165 259.566 125.835Z" fill="#500724"/>
<path d="M254.372 149.434C254.372 149.434 258.128 151.428 260.122 149.388C262.07 147.347 260.772 145.725 260.772 145.725L257.665 142.804" stroke="#500724" stroke-width="0.58946" stroke-linecap="round" stroke-linejoin="round"/>
<path d="M260.726 145.632C260.726 145.632 263.693 146.374 264.806 144.009C265.919 141.598 263.647 140.578 263.647 140.578" stroke="#500724" stroke-width="0.58946" stroke-linecap="round" stroke-linejoin="round"/>
<path d="M255.81 138.399C254.558 139.929 253.631 141.784 251.961 142.85C251.637 143.082 251.266 143.267 251.126 143.638C250.987 144.195 251.497 144.658 252.008 144.844C252.703 145.122 253.491 144.983 254.233 144.89C254.759 144.797 255.3 144.72 255.856 144.658C256.552 144.519 257.34 144.38 257.943 143.917C258.963 143.082 259.01 141.506 258.731 140.207C258.639 139.605 258.407 137.657 257.85 137.286C257.201 136.869 256.227 137.935 255.81 138.399Z" fill="#F472B6"/>
<path d="M244.449 169.741C244.449 176.881 238.653 182.723 231.465 182.723C224.324 182.723 218.481 176.881 218.481 169.741C218.481 162.554 224.324 156.759 231.465 156.759C238.653 156.759 244.449 162.554 244.449 169.741Z" fill="#F472B6"/>
<path d="M274.405 130.841C276.26 133.252 277.326 135.617 277.883 137.749C277.604 137.796 277.373 137.796 277.094 137.796C269.953 137.796 264.157 131.954 264.157 124.814C264.157 123.562 264.342 122.31 264.667 121.197C267.866 123.84 271.066 126.854 273.709 129.96C273.941 130.285 274.173 130.563 274.405 130.841Z" fill="#F472B6"/>
<path d="M231.419 164.827L205.543 185.923" stroke="#500724" stroke-width="0.58946" stroke-linecap="round" stroke-linejoin="round"/>
<path d="M233.83 166.311L211.711 191.301" stroke="#500724" stroke-width="0.58946" stroke-linecap="round" stroke-linejoin="round"/>
<path d="M236.241 167.748L221.495 197.7" stroke="#500724" stroke-width="0.58946" stroke-linecap="round" stroke-linejoin="round"/>
<path d="M270.927 132.512L289.244 116.284" stroke="#500724" stroke-width="0.58946" stroke-linecap="round" stroke-linejoin="round"/>
<path d="M269.49 130.889L285.673 110.767" stroke="#500724" stroke-width="0.58946" stroke-linecap="round" stroke-linejoin="round"/>
<path d="M268.052 129.359L279.83 103.997" stroke="#500724" stroke-width="0.58946" stroke-linecap="round" stroke-linejoin="round"/>
<path fill-rule="evenodd" clip-rule="evenodd" d="M326.573 313.474C326.387 313.474 326.202 313.428 326.016 313.289C322.075 310.368 317.994 307.354 313.264 305.917C308.766 304.572 304.083 304.711 299.167 304.85C294.623 305.036 289.986 305.175 285.488 304.062C282.056 303.181 279.552 301.651 278.161 299.472C275.889 295.995 276.816 291.451 278.717 288.437C280.804 285.191 284.05 283.012 286.925 281.204C289.012 279.86 291.145 278.561 293.232 277.356C297.08 275.084 300.976 272.766 304.593 270.123C311.038 265.394 315.444 260.247 317.762 254.776C320.498 248.331 320.544 241.377 320.591 234.051C320.637 227.56 320.73 220.837 322.77 214.624C323.234 213.187 323.93 211.611 324.857 210.127C324.347 208.736 324.069 207.345 323.93 206.325C323.048 200.251 324.532 193.853 327.917 188.753C329.633 186.156 331.905 184.348 334.085 182.633C338.119 179.387 341.643 176.605 341.458 169.65C341.458 169.094 341.875 168.677 342.385 168.677C342.942 168.677 343.313 169.094 343.313 169.604C343.498 177.486 339.325 180.824 335.244 184.07C333.157 185.739 331.024 187.408 329.448 189.773C326.294 194.502 324.95 200.437 325.738 206.047C325.862 206.85 326.016 207.623 326.202 208.365C327.315 207.16 328.659 206.14 330.329 205.583C332.555 204.795 335.383 205.351 337.331 206.881C338.954 208.18 339.742 209.941 339.557 211.75C339.325 213.465 338.258 214.995 336.496 215.922C334.363 217.082 331.674 217.128 329.68 216.062C327.917 215.134 326.665 213.697 325.831 212.213C325.274 213.187 324.857 214.253 324.532 215.181C322.538 221.162 322.492 227.699 322.446 234.051C322.399 241.284 322.353 248.749 319.478 255.518C317.02 261.267 312.383 266.692 305.706 271.607C302.042 274.296 298.054 276.66 294.205 278.932C292.119 280.184 289.986 281.436 287.899 282.734C285.209 284.45 282.149 286.536 280.294 289.457C278.671 291.914 277.883 295.67 279.738 298.452C280.851 300.214 282.984 301.512 285.951 302.254C290.171 303.32 294.716 303.181 299.074 303.042C303.99 302.856 308.998 302.717 313.774 304.155C318.829 305.685 323.234 308.93 327.129 311.805C327.547 312.083 327.639 312.686 327.315 313.103C327.129 313.335 326.851 313.474 326.573 313.474ZM326.944 210.359C327.825 212.213 329.03 213.651 330.561 214.392C331.998 215.181 334.038 215.134 335.661 214.3C336.357 213.929 337.516 213.094 337.702 211.518C337.841 209.941 336.821 208.875 336.172 208.365C334.688 207.16 332.601 206.742 330.932 207.345C329.262 207.901 327.964 209.014 326.944 210.359Z" fill="#FEC077"/>
<path d="M106.401 227.281C106.401 229.785 92.4898 231.825 75.2861 231.825C58.0823 231.825 44.1245 229.785 44.1245 227.281C44.1245 224.777 58.0823 222.737 75.2861 222.737C92.4898 222.737 106.401 224.777 106.401 227.281Z" fill="#CA87F3"/>
<path d="M120.684 41.8232C120.684 41.8232 122.678 82.3461 106.077 109.933C89.4757 137.474 79.3667 143.455 79.3667 143.455C79.3667 143.455 98.008 45.6252 120.684 41.8232Z" fill="#F472B6"/>
<path d="M77.7902 32.3633C77.7902 32.3633 92.5363 70.2433 85.5342 101.54C78.4858 132.882 70.8345 141.691 70.8345 141.691C70.8345 141.691 57.4795 43.0272 77.7902 32.3633Z" fill="#F472B6"/>
<path d="M77.7904 32.3633C77.7904 32.3633 73.8025 59.9503 75.1936 72.3761C76.6311 84.8482 71.5303 140.718 71.5303 140.718" fill="white"/>
<path d="M77.7904 32.3633C77.7904 32.3633 73.8025 59.9503 75.1936 72.3761C76.6311 84.8482 71.5303 140.718 71.5303 140.718" stroke="white" stroke-width="0.235784"/>
<path d="M33.3201 37.3711C33.3201 37.3711 60.401 69.3628 64.6208 101.262C68.8869 133.114 64.6671 143.732 64.6671 143.732C64.6671 143.732 17.8321 53.2742 33.3201 37.3711Z" fill="#F472B6"/>
<path d="M108.766 134.783L107.236 143.963L107.189 144.381L106.865 146.328L106.401 149.203L106.355 149.574L105.798 152.773L105.752 153.19L102.97 170.16L102.923 170.484L98.1007 199.74L98.0079 200.528L97.9152 200.853L97.6833 202.429L97.5906 202.939L94.7156 220.419L94.6692 220.697L93.5099 227.93L93.4636 228.162H54.3725L54.3261 227.93L54.0479 225.797L53.4451 221.346L53.3987 221.068L51.5902 207.947L50.6164 200.853V200.528L50.57 200.25L48.8543 187.825L46.4894 170.484V170.16L44.1708 153.19L44.078 152.773L43.9853 152.031L43.9389 151.706L43.2897 146.977L42.9651 144.381L42.8724 143.963L41.6204 134.783H108.766Z" fill="#CA87F3"/>
<path fill-rule="evenodd" clip-rule="evenodd" d="M106.401 149.203L106.355 149.574C103.804 150.408 101.068 150.918 98.3789 150.965C97.3588 151.011 96.1995 150.965 95.3184 150.501C94.5301 150.084 94.02 149.342 93.6491 148.739C93.5254 148.894 93.4018 149.048 93.2781 149.203C91.3305 151.521 88.4091 153.097 85.2559 153.515C84.6376 153.576 84.0347 153.607 83.4474 153.607C80.8506 153.607 78.161 152.912 75.8888 151.567C75.2705 151.196 74.7141 150.795 74.2195 150.362C74.1267 150.454 73.9876 150.501 73.8949 150.594C71.2981 152.216 67.7738 153.144 63.1831 153.468C61.0036 153.607 58.3141 153.607 56.1346 152.541C55.4236 152.17 54.7899 151.706 54.2334 151.15C53.3369 151.583 52.3786 151.907 51.3584 152.124C49.0398 152.634 46.4894 152.587 43.9853 152.031L43.939 151.706C46.443 152.263 48.9471 152.355 51.2656 151.845C52.2394 151.614 53.1669 151.289 54.0015 150.872C53.2132 150.037 52.564 148.878 52.054 147.487C51.6366 146.282 51.2193 144.705 51.7757 143.222C52.2858 141.877 54.0016 140.579 55.9028 140.764C56.8302 140.857 57.6185 141.228 58.2677 141.877C59.1488 142.804 59.5661 144.195 59.2879 145.493C58.8705 147.673 57.0621 149.666 54.558 150.965C55.0835 151.49 55.6709 151.923 56.3201 152.263C58.4068 153.283 61.05 153.283 63.1367 153.144C67.6811 152.819 71.1126 151.938 73.663 150.362C73.7558 150.3 73.864 150.223 73.9876 150.13C72.2719 148.646 71.2053 146.838 70.9271 144.937C70.7416 143.453 71.0198 142.248 71.8082 141.367C72.6428 140.393 74.4513 139.698 75.9816 140.301C77.1872 140.764 77.7437 141.877 77.9292 142.526C78.7639 145.123 77.4191 148.136 74.5441 150.176C75.0078 150.578 75.5333 150.949 76.1207 151.289C78.8102 152.912 82.149 153.607 85.1631 153.19C88.2236 152.819 91.0523 151.289 92.9535 149.017C93.1081 148.832 93.2626 148.631 93.4172 148.414C91.887 145.957 90.5422 143.314 91.6087 140.857C91.7478 140.532 91.9333 140.115 92.4434 139.93C92.8144 139.744 93.2317 139.744 93.6027 139.883C94.391 140.162 94.9938 140.95 95.2257 141.645C95.8285 143.871 95.3648 146.282 93.8809 148.414C94.2519 149.064 94.7156 149.805 95.5503 150.223C96.3386 150.64 97.4051 150.686 98.3326 150.64C101.115 150.594 103.851 150.084 106.401 149.203ZM54.3261 150.733C56.7375 149.481 58.4996 147.534 58.9169 145.447C59.1488 144.242 58.7778 142.897 57.9431 142.062C57.3867 141.46 56.6911 141.135 55.8564 141.089C55.7637 141.089 55.6709 141.089 55.5782 141.089C54.0016 141.089 52.6104 142.202 52.1467 143.314C51.5902 144.752 52.0076 146.235 52.4249 147.441C52.9505 148.77 53.5842 149.867 54.3261 150.733ZM74.2658 149.944C76.6308 148.229 78.4856 145.447 77.5582 142.572C77.3727 142.016 76.909 140.996 75.7961 140.579C75.456 140.455 75.116 140.393 74.7759 140.393C73.7094 140.393 72.6892 140.903 72.0864 141.552C71.3908 142.387 71.1126 143.5 71.2981 144.891C71.5763 146.699 72.5965 148.507 74.2658 149.944ZM93.6491 148.09C94.9938 146.05 95.4112 143.778 94.8547 141.692C94.6692 141.135 94.1128 140.393 93.4636 140.162C93.3399 140.1 93.2163 140.069 93.0926 140.069C92.9071 140.069 92.7526 140.1 92.6289 140.162C92.2579 140.347 92.0724 140.718 91.9797 140.95C90.9595 143.268 92.2116 145.725 93.6491 148.09Z" fill="white"/>
<path fill-rule="evenodd" clip-rule="evenodd" d="M94.7156 220.42L94.6692 220.698C92.768 220.559 90.9131 219.91 89.522 218.89C88.8264 219.632 87.9917 220.327 86.9715 220.791C85.4413 221.579 83.5864 221.95 81.778 221.95C78.8566 221.95 75.9352 221.023 74.0339 219.261C74.0339 219.23 74.0185 219.214 73.9876 219.214C71.4371 221.115 67.5883 221.811 64.296 220.837C62.8584 220.42 61.6064 219.724 60.6326 218.843C59.8907 219.492 59.056 220.095 58.0822 220.512C56.7374 221.162 55.1608 221.486 53.6769 221.393C53.5842 221.393 53.5069 221.378 53.4451 221.347L53.3987 221.069C53.4914 221.069 53.5996 221.069 53.7233 221.069C55.0681 221.162 56.6447 220.837 57.8967 220.234C58.8241 219.817 59.6588 219.261 60.4008 218.612C58.7778 217.081 57.9431 215.041 58.2213 213.048C58.3141 212.213 58.685 211.147 59.7052 210.498C60.2616 210.127 61.0036 209.988 61.7455 210.034C62.302 210.127 62.8121 210.359 63.0903 210.683C63.4613 211.054 63.554 211.564 63.6004 211.981C63.8786 214.346 62.8584 216.757 60.9108 218.612C61.8846 219.492 63.0903 220.142 64.4351 220.559C67.5419 221.486 71.298 220.744 73.7557 218.982C70.9271 216.061 71.0662 211.61 74.0803 208.829L74.2194 208.689L74.4049 208.829C77.1872 211.24 77.5582 215.273 75.286 218.009C74.9614 218.38 74.6368 218.704 74.2658 218.982C74.2658 219.029 74.3122 219.029 74.3122 219.029C77.3263 221.811 82.8909 222.506 86.7861 220.559C87.7599 220.049 88.5945 219.4 89.2437 218.704C89.151 218.642 89.0737 218.565 89.0119 218.472C86.5078 216.34 85.9514 212.909 87.6207 210.312C87.7599 210.08 87.9454 209.849 88.2236 209.709C88.5018 209.524 88.8728 209.524 89.1974 209.57C89.8929 209.756 90.4958 210.359 90.774 210.822C92.2115 213.326 91.6551 216.386 89.7538 218.658C91.0986 219.632 92.9071 220.234 94.7156 220.42ZM60.679 218.38C62.4875 216.618 63.4613 214.3 63.2294 211.981C63.183 211.61 63.0903 211.193 62.8121 210.869C62.5338 210.59 62.1629 210.405 61.6528 210.359C61.591 210.359 61.4982 210.359 61.3746 210.359C60.8645 210.359 60.3544 210.498 59.9834 210.73C59.0096 211.332 58.685 212.306 58.5923 213.048C58.3141 214.949 59.1487 216.896 60.679 218.38ZM74.9614 217.823C77.0944 215.273 76.7698 211.518 74.2658 209.153C71.4835 211.842 71.3908 216.015 74.0339 218.751C74.374 218.472 74.6831 218.163 74.9614 217.823ZM90.4494 210.961C90.1712 210.544 89.6611 210.034 89.1046 209.895C89.0119 209.849 88.9191 209.849 88.8728 209.849C88.7337 209.849 88.5482 209.895 88.4554 209.941C88.2699 210.08 88.1308 210.22 87.9917 210.451C86.3687 212.909 86.9252 216.201 89.2901 218.287L89.4756 218.426C91.2841 216.293 91.7478 213.372 90.4494 210.961Z" fill="white"/>
<path d="M102.97 170.159L102.923 170.484H46.4893V170.159H102.97Z" fill="white"/>
<path d="M50.6167 200.528H98.0082L97.9155 200.853H50.6167V200.528Z" fill="white"/>
</g>
<defs>
<clipPath id="clip0_136_1340">
<rect width="654.3" height="363.5" fill="white" transform="translate(0.350098)"/>
</clipPath>
</defs>
</svg>
