<svg width="24" height="27" viewBox="0 0 24 27" fill="none" xmlns="http://www.w3.org/2000/svg">
<path d="M0.861619 2C0.633103 2 0.413947 2.09078 0.252362 2.25236C0.0907774 2.41395 0 2.6331 0 2.86162C0 3.09013 0.0907774 3.30929 0.252362 3.47087C0.413947 3.63246 0.633103 3.72324 0.861619 3.72324H2.45389C2.64919 3.72324 2.81922 3.8542 2.86976 4.04261L5.80846 15.0621C4.88546 15.3026 4.06829 15.8425 3.48495 16.5971C2.90162 17.3517 2.58505 18.2786 2.58486 19.2324C2.58486 19.708 2.97086 20.094 3.44647 20.094H21.5405C21.769 20.094 21.9881 20.0032 22.1497 19.8416C22.3113 19.68 22.4021 19.4609 22.4021 19.2324C22.4021 19.0039 22.3113 18.7847 22.1497 18.6231C21.9881 18.4615 21.769 18.3708 21.5405 18.3708H4.45514C4.63336 17.8667 4.96352 17.4302 5.40012 17.1216C5.83672 16.813 6.35828 16.6474 6.89295 16.6475H19.7805C19.9419 16.6475 20.1 16.6022 20.2369 16.5167C20.3738 16.4312 20.484 16.3089 20.5548 16.1639C21.8664 13.4723 23.0023 10.6986 23.9553 7.86015C23.9929 7.74787 24.007 7.62903 23.9967 7.51105C23.9864 7.39307 23.9518 7.27848 23.8952 7.17445C23.8386 7.07042 23.7612 6.97917 23.6678 6.90641C23.5743 6.83364 23.4669 6.78092 23.3522 6.75154C17.293 5.20654 11.054 4.48129 4.80209 4.59519L4.53556 3.59916C4.41328 3.14048 4.1429 2.73505 3.76646 2.44586C3.39002 2.15667 2.92859 1.99993 2.45389 2H0.861619ZM2.58486 22.6788C2.58486 22.2218 2.76641 21.7835 3.08958 21.4603C3.41275 21.1372 3.85106 20.9556 4.30809 20.9556C4.76512 20.9556 5.20344 21.1372 5.52661 21.4603C5.84978 21.7835 6.03133 22.2218 6.03133 22.6788C6.03133 23.1359 5.84978 23.5742 5.52661 23.8974C5.20344 24.2205 4.76512 24.4021 4.30809 24.4021C3.85106 24.4021 3.41275 24.2205 3.08958 23.8974C2.76641 23.5742 2.58486 23.1359 2.58486 22.6788ZM17.2324 22.6788C17.2324 22.2218 17.4139 21.7835 17.7371 21.4603C18.0603 21.1372 18.4986 20.9556 18.9556 20.9556C19.4126 20.9556 19.8509 21.1372 20.1741 21.4603C20.4973 21.7835 20.6788 22.2218 20.6788 22.6788C20.6788 23.1359 20.4973 23.5742 20.1741 23.8974C19.8509 24.2205 19.4126 24.4021 18.9556 24.4021C18.4986 24.4021 18.0603 24.2205 17.7371 23.8974C17.4139 23.5742 17.2324 23.1359 17.2324 22.6788Z" fill="#4F359B"/>
</svg>
