<svg width="200" height="61" viewBox="0 0 200 61" fill="none" xmlns="http://www.w3.org/2000/svg">
<path d="M80.0525 6.95761C82.0133 6.95761 83.6015 7.55435 84.8172 8.74783C86.0329 9.92174 86.6408 11.6239 86.6408 13.8543V23.3337H83.9937V14.2359C83.9937 12.6315 83.5917 11.4087 82.7878 10.5674C81.9839 9.70652 80.8858 9.27609 79.4937 9.27609C78.0819 9.27609 76.9545 9.7163 76.1113 10.5967C75.2878 11.4772 74.876 12.7587 74.876 14.4413V23.3337H72.1995V7.25109H74.876V9.54022C75.4054 8.71848 76.1211 8.08261 77.0231 7.63261C77.9447 7.18261 78.9545 6.95761 80.0525 6.95761Z" fill="#4F359B"/>
<path d="M92.3952 4.63913C91.8854 4.63913 91.454 4.46304 91.101 4.11087C90.7481 3.7587 90.5716 3.32826 90.5716 2.81956C90.5716 2.31087 90.7481 1.88044 91.101 1.52826C91.454 1.17609 91.8854 1 92.3952 1C92.8854 1 93.2971 1.17609 93.6305 1.52826C93.9834 1.88044 94.1599 2.31087 94.1599 2.81956C94.1599 3.32826 93.9834 3.7587 93.6305 4.11087C93.2971 4.46304 92.8854 4.63913 92.3952 4.63913ZM93.6893 7.25109V23.3337H91.0128V7.25109H93.6893Z" fill="#4F359B"/>
<path d="M106.104 6.95761C108.065 6.95761 109.653 7.55435 110.869 8.74783C112.084 9.92174 112.692 11.6239 112.692 13.8543V23.3337H110.045V14.2359C110.045 12.6315 109.643 11.4087 108.839 10.5674C108.035 9.70652 106.937 9.27609 105.545 9.27609C104.133 9.27609 103.006 9.7163 102.163 10.5967C101.339 11.4772 100.927 12.7587 100.927 14.4413V23.3337H98.2509V7.25109H100.927V9.54022C101.457 8.71848 102.172 8.08261 103.074 7.63261C103.996 7.18261 105.006 6.95761 106.104 6.95761Z" fill="#4F359B"/>
<path d="M120.329 9.45217V18.9315C120.329 19.7141 120.496 20.2717 120.829 20.6043C121.162 20.9174 121.741 21.0739 122.564 21.0739H124.535V23.3337H122.123C120.633 23.3337 119.515 22.9913 118.77 22.3065C118.025 21.6217 117.652 20.4967 117.652 18.9315V9.45217H115.564V7.25109H117.652V3.20109H120.329V7.25109H124.535V9.45217H120.329Z" fill="#4F359B"/>
<path d="M142.484 14.6761C142.484 15.1848 142.454 15.7228 142.395 16.2902H129.513C129.611 17.875 130.15 19.1174 131.131 20.0174C132.131 20.8978 133.337 21.338 134.748 21.338C135.905 21.338 136.866 21.0739 137.631 20.5457C138.415 19.9978 138.964 19.2739 139.278 18.3739H142.16C141.729 19.9196 140.866 21.1815 139.572 22.1598C138.278 23.1185 136.67 23.5978 134.748 23.5978C133.219 23.5978 131.846 23.2554 130.631 22.5707C129.435 21.8859 128.493 20.9174 127.807 19.6652C127.121 18.3935 126.778 16.9261 126.778 15.263C126.778 13.6 127.111 12.1424 127.778 10.8902C128.444 9.63804 129.376 8.67935 130.572 8.01413C131.788 7.32935 133.18 6.98696 134.748 6.98696C136.278 6.98696 137.631 7.31957 138.807 7.98478C139.984 8.65 140.886 9.56956 141.513 10.7435C142.16 11.8978 142.484 13.2087 142.484 14.6761ZM139.719 14.1185C139.719 13.1011 139.493 12.2304 139.042 11.5065C138.591 10.763 137.974 10.2054 137.189 9.8337C136.425 9.44239 135.572 9.24674 134.631 9.24674C133.278 9.24674 132.121 9.67717 131.16 10.538C130.219 11.3989 129.68 12.5924 129.542 14.1185H139.719Z" fill="#4F359B"/>
<path d="M153.869 6.95761C155.83 6.95761 157.419 7.55435 158.634 8.74783C159.85 9.92174 160.458 11.6239 160.458 13.8543V23.3337H157.811V14.2359C157.811 12.6315 157.409 11.4087 156.605 10.5674C155.801 9.70652 154.703 9.27609 153.311 9.27609C151.899 9.27609 150.771 9.7163 149.928 10.5967C149.105 11.4772 148.693 12.7587 148.693 14.4413V23.3337H146.017V7.25109H148.693V9.54022C149.222 8.71848 149.938 8.08261 150.84 7.63261C151.762 7.18261 152.771 6.95761 153.869 6.95761Z" fill="#4F359B"/>
<path d="M163.83 15.2337C163.83 13.5902 164.163 12.1522 164.83 10.9196C165.496 9.66739 166.408 8.69891 167.565 8.01413C168.742 7.32935 170.055 6.98696 171.506 6.98696C172.761 6.98696 173.928 7.28044 175.006 7.86739C176.085 8.43478 176.908 9.18804 177.477 10.1272V1.61631H180.183V23.3337H177.477V20.3109C176.948 21.2696 176.163 22.062 175.124 22.688C174.085 23.2946 172.869 23.5978 171.477 23.5978C170.046 23.5978 168.742 23.2457 167.565 22.5413C166.408 21.837 165.496 20.8489 164.83 19.5772C164.163 18.3054 163.83 16.8576 163.83 15.2337ZM177.477 15.263C177.477 14.05 177.232 12.9935 176.742 12.0935C176.251 11.1935 175.585 10.5087 174.742 10.0391C173.918 9.55 173.006 9.30544 172.006 9.30544C171.006 9.30544 170.095 9.54022 169.271 10.0098C168.447 10.4793 167.791 11.1641 167.3 12.0641C166.81 12.9641 166.565 14.0207 166.565 15.2337C166.565 16.4663 166.81 17.5424 167.3 18.462C167.791 19.362 168.447 20.0565 169.271 20.5457C170.095 21.0152 171.006 21.25 172.006 21.25C173.006 21.25 173.918 21.0152 174.742 20.5457C175.585 20.0565 176.251 19.362 176.742 18.462C177.232 17.5424 177.477 16.4761 177.477 15.263Z" fill="#4F359B"/>
<path d="M191.735 23.5978C190.225 23.5978 188.853 23.2554 187.618 22.5707C186.402 21.8859 185.441 20.9174 184.735 19.6652C184.049 18.3935 183.706 16.9261 183.706 15.263C183.706 13.6196 184.059 12.1717 184.765 10.9196C185.49 9.64783 186.471 8.67935 187.706 8.01413C188.941 7.32935 190.323 6.98696 191.853 6.98696C193.382 6.98696 194.765 7.32935 196 8.01413C197.235 8.67935 198.206 9.63804 198.912 10.8902C199.637 12.1424 200 13.6 200 15.263C200 16.9261 199.627 18.3935 198.882 19.6652C198.157 20.9174 197.167 21.8859 195.912 22.5707C194.657 23.2554 193.265 23.5978 191.735 23.5978ZM191.735 21.25C192.696 21.25 193.598 21.025 194.441 20.575C195.284 20.125 195.961 19.45 196.471 18.55C197 17.65 197.265 16.5543 197.265 15.263C197.265 13.9717 197.01 12.8761 196.5 11.9761C195.99 11.0761 195.324 10.4109 194.5 9.98044C193.676 9.53044 192.784 9.30544 191.823 9.30544C190.843 9.30544 189.941 9.53044 189.118 9.98044C188.314 10.4109 187.667 11.0761 187.176 11.9761C186.686 12.8761 186.441 13.9717 186.441 15.263C186.441 16.5739 186.676 17.6793 187.147 18.5793C187.637 19.4793 188.284 20.1543 189.088 20.6043C189.892 21.0348 190.774 21.25 191.735 21.25Z" fill="#4F359B"/>
<path d="M82.3153 60.1974C80.2305 60.1974 78.3741 59.8412 76.7462 59.1288C75.1183 58.4163 73.8332 57.4474 72.8907 56.222C71.9483 54.9682 71.4199 53.5718 71.3057 52.033H78.5455C78.6311 52.8594 79.0167 53.5291 79.7021 54.042C80.3875 54.555 81.2301 54.8114 82.2296 54.8114C83.1435 54.8114 83.8432 54.6405 84.3287 54.2985C84.8428 53.928 85.0998 53.4578 85.0998 52.8879C85.0998 52.2039 84.7429 51.7052 84.0289 51.3918C83.3149 51.0498 82.1582 50.6793 80.5589 50.2804C78.8453 49.8814 77.4174 49.4682 76.275 49.0408C75.1326 48.5848 74.1473 47.8866 73.3191 46.9462C72.4909 45.9773 72.0768 44.6807 72.0768 43.0564C72.0768 41.6885 72.448 40.4489 73.1906 39.3375C73.9617 38.1976 75.0755 37.2999 76.532 36.6445C78.0171 35.9891 79.7735 35.6613 81.8012 35.6613C84.8 35.6613 87.1561 36.4023 88.8697 37.8841C90.6118 39.366 91.6114 41.3323 91.8684 43.783H85.0998C84.9856 42.9566 84.6143 42.3012 83.986 41.8167C83.3863 41.3323 82.5866 41.09 81.587 41.09C80.7303 41.09 80.0734 41.261 79.6164 41.603C79.1595 41.9165 78.931 42.3582 78.931 42.9281C78.931 43.612 79.288 44.125 80.002 44.467C80.7445 44.8089 81.8869 45.1509 83.4291 45.4929C85.1998 45.9488 86.6421 46.4048 87.7559 46.8607C88.8697 47.2882 89.8407 48.0006 90.6689 48.998C91.5257 49.9669 91.9684 51.2778 91.9969 52.9306C91.9969 54.327 91.5971 55.5809 90.7974 56.6922C90.0263 57.7751 88.8982 58.6301 87.4132 59.257C85.9566 59.8839 84.2573 60.1974 82.3153 60.1974Z" fill="#4F359B"/>
<path d="M130.793 36.0033L124.324 59.8554H116.227L112.458 44.3815L108.559 59.8554H100.506L93.994 36.0033H101.319L104.704 53.0589L108.731 36.0033H116.484L120.554 52.9734L123.896 36.0033H130.793Z" fill="#4F359B"/>
<path d="M156.12 47.5447C156.12 48.2286 156.077 48.941 155.991 49.6819H139.412C139.527 51.1638 139.998 52.3037 140.826 53.1016C141.683 53.871 142.725 54.2557 143.953 54.2557C145.781 54.2557 147.052 53.4863 147.766 51.9475H155.563C155.163 53.5148 154.435 54.9254 153.378 56.1793C152.35 57.4332 151.05 58.4163 149.48 59.1288C147.909 59.8412 146.152 60.1974 144.21 60.1974C141.869 60.1974 139.784 59.6987 137.956 58.7013C136.128 57.7039 134.7 56.279 133.672 54.4267C132.644 52.5744 132.13 50.4086 132.13 47.9294C132.13 45.4501 132.63 43.2843 133.629 41.432C134.657 39.5797 136.085 38.1548 137.913 37.1574C139.741 36.16 141.84 35.6613 144.21 35.6613C146.524 35.6613 148.58 36.1458 150.379 37.1147C152.178 38.0836 153.578 39.4657 154.577 41.261C155.606 43.0564 156.12 45.1509 156.12 47.5447ZM148.623 45.6211C148.623 44.3672 148.194 43.3698 147.338 42.6289C146.481 41.888 145.41 41.5175 144.125 41.5175C142.897 41.5175 141.854 41.8737 140.997 42.5862C140.169 43.2986 139.655 44.3102 139.455 45.6211H148.623Z" fill="#4F359B"/>
<path d="M182.518 47.5447C182.518 48.2286 182.475 48.941 182.389 49.6819H165.81C165.925 51.1638 166.396 52.3037 167.224 53.1016C168.081 53.871 169.123 54.2557 170.351 54.2557C172.179 54.2557 173.45 53.4863 174.164 51.9475H181.961C181.561 53.5148 180.833 54.9254 179.776 56.1793C178.748 57.4332 177.448 58.4163 175.878 59.1288C174.307 59.8412 172.55 60.1974 170.608 60.1974C168.266 60.1974 166.182 59.6987 164.354 58.7013C162.526 57.7039 161.098 56.279 160.07 54.4267C159.042 52.5744 158.528 50.4086 158.528 47.9294C158.528 45.4501 159.027 43.2843 160.027 41.432C161.055 39.5797 162.483 38.1548 164.311 37.1574C166.139 36.16 168.238 35.6613 170.608 35.6613C172.922 35.6613 174.978 36.1458 176.777 37.1147C178.576 38.0836 179.976 39.4657 180.975 41.261C182.004 43.0564 182.518 45.1509 182.518 47.5447ZM175.021 45.6211C175.021 44.3672 174.592 43.3698 173.736 42.6289C172.879 41.888 171.808 41.5175 170.523 41.5175C169.295 41.5175 168.252 41.8737 167.395 42.5862C166.567 43.2986 166.053 44.3102 165.853 45.6211H175.021Z" fill="#4F359B"/>
<path d="M199.705 53.6573V59.8554H195.978C193.322 59.8554 191.252 59.2142 189.766 57.9319C188.281 56.621 187.539 54.498 187.539 51.5628V42.0732H184.626V36.0033H187.539V30.1899H194.864V36.0033H199.662V42.0732H194.864V51.6482C194.864 52.3607 195.036 52.8736 195.378 53.1871C195.721 53.5006 196.292 53.6573 197.092 53.6573H199.705Z" fill="#4F359B"/>
<path d="M35.5168 60H44.7262C53.1821 60 60.131 53.0662 60.131 44.6287V15.3712C60.131 6.93375 53.1821 0 44.7262 0H35.3307C35.1447 0 34.9493 0.185625 34.9493 0.37125V59.6287C34.9493 59.8144 35.1353 60 35.5168 60ZM46.9773 27.0019C50.3635 27.0019 52.9867 29.8144 52.9867 32.9981C52.9867 36.3769 50.168 38.9944 46.9773 38.9944C43.5912 38.9944 40.968 36.3769 40.968 32.9981C40.7726 29.6287 43.5912 27.0019 46.9773 27.0019ZM28.5585 0H15.4048C6.94889 0 0 6.93375 0 15.3712V44.6287C0 53.0662 6.94889 60 15.4048 60H28.5585C28.7445 60 28.9399 59.8144 28.9399 59.6287V0.37125C28.9399 0.185625 28.7539 0 28.5585 0ZM24.2422 55.1269H15.4048C9.5815 55.1269 4.88377 50.4394 4.88377 44.6287V15.3712C4.88377 9.56062 9.5815 4.87312 15.4048 4.87312H24.0562L24.2422 55.1269ZM9.39547 17.9981C9.39547 21.1819 11.8421 23.6231 15.0328 23.6231C18.2235 23.6231 20.67 21.1819 20.67 17.9981C20.67 14.8144 18.2235 12.3731 15.0328 12.3731C11.8421 12.3731 9.39547 14.8144 9.39547 17.9981Z" fill="#4F359B"/>
</svg>
