<svg width="24" height="24" viewBox="0 0 24 24" fill="none" xmlns="http://www.w3.org/2000/svg">
<path d="M0.861619 1C0.633103 1 0.413947 1.09078 0.252362 1.25236C0.0907774 1.41395 0 1.6331 0 1.86162C0 2.09013 0.0907774 2.30929 0.252362 2.47087C0.413947 2.63246 0.633103 2.72324 0.861619 2.72324H2.45389C2.64919 2.72324 2.81922 2.8542 2.86976 3.04261L5.80846 14.0621C4.88546 14.3026 4.06829 14.8425 3.48495 15.5971C2.90162 16.3517 2.58505 17.2786 2.58486 18.2324C2.58486 18.708 2.97086 19.094 3.44647 19.094H21.5405C21.769 19.094 21.9881 19.0032 22.1497 18.8416C22.3113 18.68 22.4021 18.4609 22.4021 18.2324C22.4021 18.0039 22.3113 17.7847 22.1497 17.6231C21.9881 17.4615 21.769 17.3708 21.5405 17.3708H4.45514C4.63336 16.8667 4.96352 16.4302 5.40012 16.1216C5.83672 15.813 6.35828 15.6474 6.89295 15.6475H19.7805C19.9419 15.6475 20.1 15.6022 20.2369 15.5167C20.3738 15.4312 20.484 15.3089 20.5548 15.1639C21.8664 12.4723 23.0023 9.69857 23.9553 6.86015C23.9929 6.74787 24.007 6.62903 23.9967 6.51105C23.9864 6.39307 23.9518 6.27848 23.8952 6.17445C23.8386 6.07042 23.7612 5.97917 23.6678 5.90641C23.5743 5.83364 23.4669 5.78092 23.3522 5.75154C17.293 4.20654 11.054 3.48129 4.80209 3.59519L4.53556 2.59916C4.41328 2.14048 4.1429 1.73505 3.76646 1.44586C3.39002 1.15667 2.92859 0.99993 2.45389 1H0.861619ZM2.58486 21.6788C2.58486 21.2218 2.76641 20.7835 3.08958 20.4603C3.41275 20.1372 3.85106 19.9556 4.30809 19.9556C4.76512 19.9556 5.20344 20.1372 5.52661 20.4603C5.84978 20.7835 6.03133 21.2218 6.03133 21.6788C6.03133 22.1359 5.84978 22.5742 5.52661 22.8974C5.20344 23.2205 4.76512 23.4021 4.30809 23.4021C3.85106 23.4021 3.41275 23.2205 3.08958 22.8974C2.76641 22.5742 2.58486 22.1359 2.58486 21.6788ZM17.2324 21.6788C17.2324 21.2218 17.4139 20.7835 17.7371 20.4603C18.0603 20.1372 18.4986 19.9556 18.9556 19.9556C19.4126 19.9556 19.8509 20.1372 20.1741 20.4603C20.4973 20.7835 20.6788 21.2218 20.6788 21.6788C20.6788 22.1359 20.4973 22.5742 20.1741 22.8974C19.8509 23.2205 19.4126 23.4021 18.9556 23.4021C18.4986 23.4021 18.0603 23.2205 17.7371 22.8974C17.4139 22.5742 17.2324 22.1359 17.2324 21.6788Z" fill="white"/>
</svg>
