<svg width="28" height="26" viewBox="0 0 28 26" fill="none" xmlns="http://www.w3.org/2000/svg">
<path d="M4.43922 8.17496C3.32387 9.50332 2.49335 11.0504 2 12.7188C3.54031 17.9375 8.33053 21.7415 14.0006 21.7415C15.1844 21.7415 16.3289 21.5755 17.4138 21.2663M7.11927 5.77492C9.16104 4.41526 11.5543 3.69226 14.0006 3.69608C19.6707 3.69608 24.4597 7.50006 26 12.7164C25.1558 15.5667 23.3438 18.026 20.8819 19.6627M7.11927 5.77492L3.27088 1.89154M7.11927 5.77492L11.4708 10.166M20.8819 19.6627L24.7303 23.5461M20.8819 19.6627L16.5304 15.2716C16.8626 14.9365 17.126 14.5386 17.3058 14.1007C17.4855 13.6627 17.5781 13.1934 17.5781 12.7194C17.5781 12.2454 17.4855 11.7761 17.3058 11.3382C17.126 10.9002 16.8626 10.5023 16.5304 10.1672C16.1983 9.83202 15.804 9.56615 15.37 9.38476C14.936 9.20337 14.4709 9.11001 14.0012 9.11001C13.5315 9.11001 13.0663 9.20337 12.6324 9.38476C12.1984 9.56615 11.8041 9.83202 11.472 10.1672M16.5292 15.2704L11.4732 10.1684" stroke="#4F359B" stroke-width="3" stroke-linecap="round" stroke-linejoin="round"/>
</svg>
