<svg width="28" height="22" viewBox="0 0 28 22" fill="none" xmlns="http://www.w3.org/2000/svg">
<path d="M9.39711 18.644C9.39711 19.1345 9.20228 19.6049 8.85547 19.9517C8.50866 20.2985 8.03829 20.4933 7.54784 20.4933C7.05738 20.4933 6.58701 20.2985 6.2402 19.9517C5.8934 19.6049 5.69857 19.1345 5.69857 18.644M9.39711 18.644C9.39711 18.1536 9.20228 17.6832 8.85547 17.3364C8.50866 16.9896 8.03829 16.7948 7.54784 16.7948C7.05738 16.7948 6.58701 16.9896 6.2402 17.3364C5.8934 17.6832 5.69857 18.1536 5.69857 18.644M9.39711 18.644H16.7942M5.69857 18.644H3.38698C3.01913 18.644 2.66636 18.4979 2.40625 18.2378C2.14615 17.9777 2.00002 17.6249 2.00002 17.2571V13.0962M16.7942 18.644H19.5681M16.7942 18.644V13.0962M2.00002 13.0962V3.68343C1.99806 3.34584 2.12141 3.01952 2.34619 2.76764C2.57097 2.51576 2.88121 2.35622 3.21684 2.3199C7.32598 1.89337 11.4682 1.89337 15.5774 2.3199C16.2739 2.3914 16.7942 2.98317 16.7942 3.68343V4.8645M2.00002 13.0962H16.7942M23.2666 18.644C23.2666 19.1345 23.0718 19.6049 22.725 19.9517C22.3782 20.2985 21.9078 20.4933 21.4174 20.4933C20.9269 20.4933 20.4565 20.2985 20.1097 19.9517C19.7629 19.6049 19.5681 19.1345 19.5681 18.644M23.2666 18.644C23.2666 18.1536 23.0718 17.6832 22.725 17.3364C22.3782 16.9896 21.9078 16.7948 21.4174 16.7948C20.9269 16.7948 20.4565 16.9896 20.1097 17.3364C19.7629 17.6832 19.5681 18.1536 19.5681 18.644M23.2666 18.644H24.6536C25.4192 18.644 26.0455 18.0227 25.9974 17.2583C25.7497 13.187 24.3786 9.26399 22.0363 5.92474C21.8132 5.61195 21.5219 5.35396 21.1844 5.17028C20.847 4.9866 20.4722 4.88204 20.0884 4.8645H16.7942M16.7942 4.8645V13.0962" stroke="#4F359B" stroke-width="3" stroke-linecap="round" stroke-linejoin="round"/>
</svg>
