<svg width="28" height="27" viewBox="0 0 28 27" fill="none" xmlns="http://www.w3.org/2000/svg">
<path d="M13.3175 2.71376C13.3729 2.57896 13.4673 2.46365 13.5887 2.38249C13.71 2.30133 13.8529 2.258 13.999 2.258C14.1452 2.258 14.288 2.30133 14.4094 2.38249C14.5307 2.46365 14.6251 2.57896 14.6806 2.71376L17.4657 9.39171C17.5179 9.51667 17.6036 9.62486 17.7134 9.70439C17.8232 9.78392 17.953 9.83171 18.0883 9.84248L25.3205 10.42C25.9745 10.4723 26.2393 11.2863 25.7412 11.7109L20.2312 16.4172C20.1283 16.505 20.0516 16.6193 20.0095 16.7477C19.9674 16.8761 19.9616 17.0135 19.9927 17.145L21.6769 24.1809C21.7107 24.3221 21.7019 24.4701 21.6514 24.6062C21.6009 24.7424 21.5111 24.8605 21.3933 24.9458C21.2755 25.0311 21.135 25.0797 20.9895 25.0854C20.844 25.0911 20.7001 25.0537 20.5759 24.9779L14.3831 21.2085C14.2674 21.1382 14.1345 21.101 13.999 21.101C13.8636 21.101 13.7307 21.1382 13.615 21.2085L7.42213 24.9793C7.29795 25.055 7.15403 25.0924 7.00855 25.0867C6.86308 25.081 6.72256 25.0324 6.60475 24.9471C6.48695 24.8618 6.39714 24.7437 6.34666 24.6075C6.29619 24.4714 6.28732 24.3234 6.32117 24.1822L8.00537 17.145C8.0366 17.0135 8.03086 16.876 7.98878 16.7476C7.94669 16.6192 7.86989 16.5049 7.76683 16.4172L2.25681 11.7109C2.14647 11.6163 2.06664 11.4913 2.02737 11.3516C1.98811 11.2119 1.99115 11.0638 2.03611 10.9258C2.08108 10.7879 2.16596 10.6662 2.28009 10.5762C2.39422 10.4862 2.53249 10.4319 2.67753 10.42L9.90976 9.84248C10.0451 9.83171 10.1748 9.78392 10.2846 9.70439C10.3945 9.62486 10.4802 9.51667 10.5323 9.39171L13.3175 2.71376Z" fill="#FFE794" stroke="#FEC077" stroke-width="3" stroke-linecap="round" stroke-linejoin="round"/>
</svg>
