<svg width="38" height="39" viewBox="0 0 38 39" fill="none" xmlns="http://www.w3.org/2000/svg">
<path d="M22.4449 38.5H28.2649C33.6086 38.5 38 34.1086 38 28.7649V10.2351C38 4.89137 33.6086 0.5 28.2649 0.5H22.3274C22.2098 0.5 22.0863 0.617562 22.0863 0.735125V38.2649C22.0863 38.3824 22.2039 38.5 22.4449 38.5ZM29.6875 17.6012C31.8274 17.6012 33.4851 19.3824 33.4851 21.3988C33.4851 23.5387 31.7039 25.1964 29.6875 25.1964C27.5476 25.1964 25.8899 23.5387 25.8899 21.3988C25.7664 19.2649 27.5476 17.6012 29.6875 17.6012ZM18.0476 0.5H9.73512C4.39137 0.5 0 4.89137 0 10.2351V28.7649C0 34.1086 4.39137 38.5 9.73512 38.5H18.0476C18.1652 38.5 18.2887 38.3824 18.2887 38.2649V0.735125C18.2887 0.617562 18.1711 0.5 18.0476 0.5ZM15.3199 35.4137H9.73512C6.05506 35.4137 3.08631 32.4449 3.08631 28.7649V10.2351C3.08631 6.55506 6.05506 3.58631 9.73512 3.58631H15.2024L15.3199 35.4137ZM5.9375 11.8988C5.9375 13.9152 7.48362 15.4613 9.5 15.4613C11.5164 15.4613 13.0625 13.9152 13.0625 11.8988C13.0625 9.88244 11.5164 8.33631 9.5 8.33631C7.48362 8.33631 5.9375 9.88244 5.9375 11.8988Z" fill="#4F359B"/>
</svg>
