<svg width="414" height="414" viewBox="0 0 414 414" fill="none" xmlns="http://www.w3.org/2000/svg">
<circle cx="207" cy="207" r="207" fill="#E5B6F1"/>
<path d="M355.288 194.11C356.309 193.942 357.273 194.152 358.18 194.74C359.087 195.328 359.624 196.132 359.792 197.153C359.96 198.174 359.75 199.137 359.162 200.044C347.046 217.648 331.696 228.99 313.112 234.071C316.221 241.841 317.91 250.133 318.179 258.947C318.558 271.383 315.854 283.639 310.067 295.715C304.28 307.792 295.89 318.614 284.897 328.182C274.637 337.112 262.82 344.345 249.448 349.882C236.075 355.419 221.754 359.002 206.484 360.63C201.575 361.122 197.139 361.428 193.176 361.549C176.025 362.071 159.158 357.285 142.573 347.19C126.059 337.161 110.872 322.441 97.0121 303.03C85.5115 286.967 76.1899 269.469 69.0473 250.538C61.9047 231.606 58.0949 214.316 57.618 198.669C57.216 185.482 59.3976 175.157 64.1626 167.694C68.996 160.229 75.9907 156.357 85.1466 156.077C88.0847 155.988 91.5871 156.462 95.6538 157.501C99.7185 158.472 103.548 159.586 107.143 160.844C110.738 162.102 115.658 164.209 121.903 167.165C128.146 170.052 133.144 172.465 136.896 174.402C140.714 176.269 146.653 179.268 154.712 183.399C163.536 187.918 170.517 191.467 175.657 194.046C180.794 196.556 187.699 199.834 196.371 203.878C205.112 207.92 212.632 211.179 218.931 213.654C225.298 216.127 232.418 218.612 240.291 221.107C248.163 223.603 255.574 225.532 262.523 226.893C269.265 228.192 275.342 228.998 280.755 229.312C278.06 226.18 275.028 223.16 271.656 220.254C268.351 217.277 264.536 214.384 260.21 211.575C255.884 208.766 251.945 206.322 248.394 204.241C244.84 202.093 240.287 199.667 234.733 196.964C229.177 194.192 224.804 192.069 221.613 190.593C218.49 189.115 213.912 186.998 207.878 184.241C198.516 180.012 191.476 176.773 186.757 174.523C182.104 172.203 176.4 169.06 169.645 165.094C162.957 161.058 158.162 157.442 155.26 154.248C152.359 151.054 149.985 147.228 148.14 142.77C146.36 138.242 146.046 133.533 147.196 128.642C149.319 119.755 153.911 111.1 160.972 102.678C168.101 94.2538 176.363 87.0603 185.756 81.0975C195.149 75.1348 205.226 70.3138 215.988 66.6346C226.816 62.8849 237.048 60.8633 246.682 60.5697C261.782 60.1094 273.891 63.6044 283.009 71.0546C283.15 71.1871 283.326 71.3528 283.537 71.5515C283.747 71.6819 283.886 71.7802 283.957 71.8465L285.858 73.6351C286.703 74.43 287.302 75.0273 287.656 75.4268L287.762 75.5262C288.541 76.3915 289.396 77.5281 290.328 78.9359C293.621 83.7597 295.632 89.1355 296.359 95.0634C297.156 100.989 296.752 105.686 295.148 109.155C293.058 119.135 287.882 129.928 279.618 141.532C279.028 142.371 278.188 142.875 277.099 143.045C276.079 143.213 275.149 143.002 274.31 142.412C273.472 141.822 272.968 141.017 272.8 139.996C272.63 138.907 272.84 137.943 273.43 137.105C280.709 126.829 285.376 117.283 287.433 108.467C289.487 99.5815 288.81 91.9423 285.4 85.5491C283.083 81.3111 279.693 77.7897 275.23 74.9849L275.019 74.7862C268.262 70.7519 259.588 68.8961 248.997 69.2189C242.096 69.4293 234.157 71.4837 225.18 75.382C216.203 79.2804 207.673 84.3961 199.591 90.7293C190.906 97.4912 184.18 104.57 179.413 111.964C174.644 119.291 172.355 126.097 172.546 132.383C172.6 134.16 173.133 135.922 174.144 137.669C175.223 139.414 176.987 141.207 179.437 143.047C181.887 144.888 184.193 146.493 186.354 147.863C188.585 149.231 191.885 150.943 196.257 152.998C200.628 155.054 204.132 156.691 206.768 157.91C209.47 159.059 213.559 160.815 219.033 163.178C226.101 166.177 231.68 168.606 235.772 170.465C239.932 172.321 245.137 174.796 251.386 177.888C257.702 180.91 263.473 184.017 268.7 187.209C273.926 190.4 278.816 193.739 283.367 197.225C295.27 206.301 304.087 216.222 309.819 226.99C327.326 222.49 341.679 212.067 352.875 195.722C353.463 194.815 354.267 194.278 355.288 194.11ZM198.066 353.705C199.022 353.676 200.455 353.564 202.364 353.369C232.853 350.662 256.299 340.167 272.702 321.885C280.244 313.517 285.899 303.838 289.667 292.849C293.436 281.86 294.879 270.874 293.997 259.89C293.337 251.703 290.85 244.153 286.536 237.24C278.67 237.206 270.161 236.269 261.009 234.428C252.203 232.713 243.137 230.356 233.813 227.358C224.555 224.289 214.622 220.385 204.014 215.648C193.474 210.908 184.941 206.962 178.417 203.81C171.96 200.655 162.896 196.11 151.226 190.174C141.986 185.463 135.006 181.948 130.285 179.63C125.563 177.312 119.875 174.681 113.22 171.738C106.631 168.725 101.13 166.635 96.7174 165.47C92.3711 164.235 88.5923 163.666 85.3809 163.764C81.0079 163.898 77.3526 165.137 74.4149 167.484C71.5456 169.828 69.4849 172.9 68.2329 176.7C66.9809 180.5 66.1336 184.116 65.6911 187.549C65.317 190.98 65.1882 194.609 65.3048 198.435C65.5173 205.404 66.5363 213.033 68.3619 221.321C70.1855 229.541 72.6665 238.014 75.8049 246.741C78.9412 255.4 82.7971 264.104 87.3725 272.856C92.0162 281.605 97.0936 289.999 102.605 298.038C108.184 306.075 114.43 313.545 121.343 320.446C128.258 327.417 135.417 333.422 142.82 338.463C150.223 343.503 158.241 347.396 166.873 350.142C175.508 352.957 184.198 354.231 192.944 353.964C193.354 353.952 193.9 353.901 194.581 353.812C195.264 353.791 195.777 353.775 196.118 353.765L198.066 353.705Z" fill="#4F359B"/>
</svg>
